<?xml version="1.0" encoding="utf-8" ?><svg xmlns="http://www.w3.org/2000/svg" xmlns:xlink="http://www.w3.org/1999/xlink" width="1024" height="1024" viewBox="0 0 1024 1024"><path fill="#FBFBFB" d="M503.372 165.015C694.213 159.848 853.259 310.06 858.995 500.884C864.731 691.709 714.993 851.202 524.186 857.506C332.574 863.837 172.26 713.328 166.501 521.698C160.741 330.068 311.726 170.204 503.372 165.015Z"/><path fill="#474747" d="M473.142 629.652C480.196 628.835 501.739 629.342 509.902 629.343L535.367 629.368C541.433 629.38 547.364 629.095 553.385 630.06C574.36 633.498 584.313 650.781 582.946 671.037C582.127 683.175 584.42 698.162 581.765 710.032C580.737 714.78 578.622 719.226 575.588 723.02C569.171 731.017 561.573 734.275 551.668 735.405C530.825 736.034 509.373 734.977 488.476 735.382C476.526 735.613 464.644 736.122 454.517 728.75C447.75 723.87 443.264 716.442 442.096 708.181C441.076 701.412 441.193 662.834 442.595 656.264C443.574 651.735 445.535 647.475 448.341 643.787C454.545 635.562 463.082 631.123 473.142 629.652Z"/><path fill="#14B8A6" d="M479.035 638.701C499.608 637.487 521.704 639.037 542.422 638.729C545.742 638.679 550.107 639.098 553.377 639.823C557.892 640.779 562.067 642.93 565.466 646.051C570.334 650.6 573.283 658.583 573.118 664.951C572.863 674.857 574.423 700.095 572.206 708.352C571.215 712.022 569.329 715.39 566.718 718.154C560.556 724.716 553.873 725.612 545.54 726.02C528.853 726.245 512.163 726.311 495.474 726.219C475.871 726.084 452.681 728.605 451.285 701.91C450.854 693.007 451.687 683.28 451.26 674.453C450.242 653.443 455.797 640.199 479.035 638.701Z"/><path fill="#474747" d="M634.481 287.227L680.507 287.17C690.328 287.162 703.159 286.413 712.442 288.333C727.204 291.649 738.287 304.581 738.449 319.819C737.852 333.936 739.557 349.028 738.378 363.059C736.666 383.419 720.95 393.455 702.509 394.2L655.405 394.166C639.477 394.152 622.934 396.598 610.192 385.401C596.099 373.446 599.218 355.218 599.009 338.621C598.839 325.123 597.166 309.245 607.44 298.636C615.478 290.335 623.219 287.694 634.481 287.227Z"/><path fill="#14B8A6" d="M635.067 296.708C648.708 296.312 663.227 296.715 676.993 296.622C687.896 296.797 699.157 296.073 709.921 297.692C720.56 299.292 729.901 310.801 729.023 321.345C727.989 333.776 731.011 354.627 728.197 366.079C727.21 370.123 725.18 373.838 722.309 376.853C717.118 382.317 710.982 384.271 703.701 384.591L654.225 384.641C641.965 384.609 626.826 386.451 616.938 378.662C612.69 375.316 608.23 366.464 608.554 361.195C609.334 348.494 606.456 327.301 609.286 315.428C610.168 311.656 611.956 308.156 614.496 305.23C620.227 298.674 626.927 297.199 635.067 296.708Z"/><path fill="#474747" d="M473.806 515.162C479.877 514.264 503.125 514.768 510.408 514.784L535.473 514.85C541.606 514.869 547.264 514.653 553.357 515.511C573.211 518.306 584.055 535.509 582.552 554.73C581.612 566.753 584.116 582.7 581.747 594.33C580.748 599.211 578.688 603.812 575.711 607.807C569.715 615.788 561.821 619.583 552.125 620.984C548.899 621.298 545.07 621.398 541.777 621.32C517.496 620.745 492.762 622.25 468.602 620.214C465.093 619.919 459.676 617.061 456.722 614.964C449.186 609.707 444.079 601.641 442.55 592.581C441.417 585.632 441.641 548.305 443.066 541.716C444.024 537.358 445.899 533.255 448.566 529.678C455.088 520.823 463.145 516.739 473.806 515.162Z"/><path fill="#14B8A6" d="M480.595 524.223C495.938 524.163 511.282 524.186 526.624 524.293C538.894 524.354 555.6 522.362 565.115 531.274C573.212 538.621 573.675 550.497 573.188 560.801C572.742 570.242 574.52 584.328 572.076 593.231C570.959 597.305 568.828 601.03 565.88 604.057C559.466 610.657 552.865 611.561 544.344 611.771C530.932 611.948 517.454 611.613 503.982 611.594C493.38 611.436 481.53 612.059 471.19 610.534C460.396 608.943 450.937 597.297 451.643 586.784C452.412 575.322 450.07 553.45 452.731 543.014C453.697 539.244 455.586 535.774 458.228 532.916C464.728 525.818 471.673 524.524 480.595 524.223Z"/><path fill="#474747" d="M317.146 515.174C323.917 514.325 347.043 514.785 354.797 514.807C363.409 514.832 388.352 514.327 395.869 515.527C401.085 516.325 406.065 518.246 410.465 521.157C417.993 526.268 423.192 534.153 424.924 543.086C426.15 549.477 426.075 587.695 424.711 594.134C423.722 598.683 421.835 602.989 419.161 606.8C413.059 615.501 404.609 619.242 394.465 621.091C382.034 622.304 367.16 621.18 354.361 621.38C341.044 621.154 324.944 621.894 311.921 620.203C299.633 618.608 285.487 603.765 285.381 591.562C285.273 579.193 283.684 553.155 286.254 541.711C287.351 536.889 289.481 532.363 292.498 528.445C298.952 520.045 306.93 516.545 317.146 515.174Z"/><path fill="#14B8A6" d="M317.175 524.638C332.518 523.655 348.397 524.474 364.204 524.271C386.785 523.981 417.85 520.375 416.065 553.781C414.88 575.944 423.671 605.841 393.832 611.262C383.958 612.231 367.05 611.309 356.374 611.533C343.416 611.474 330.38 611.786 317.453 611.181C307.655 610.722 296.437 602.163 295.416 592.277C293.875 577.357 294.143 560.288 295.295 545.309C296.198 533.572 306.478 526.593 317.175 524.638Z"/><path fill="#474747" d="M325.023 629.256L368.625 629.153C376.871 629.163 391.929 628.713 399.403 630.464C405.437 631.835 410.969 634.863 415.376 639.208C426.322 650.133 425.557 661.873 425.539 675.873L425.574 697.216C425.522 724.979 411.504 735.337 384.75 735.255L340.408 735.337C324.801 735.365 307.712 737.398 295.339 726.058C281.247 713.294 286.014 695.396 285.03 679.1C283.218 649.071 292.069 629.819 325.023 629.256Z"/><path fill="#14B8A6" d="M318.583 638.629C331.306 637.761 347.887 638.76 360.989 638.42C372.306 638.642 383.691 637.922 394.954 639.093C405.914 640.233 415.588 650.919 415.742 661.751C415.947 676.242 416.71 691.38 415.58 705.758C414.606 718.162 403.479 724.752 392.171 725.903C387.778 726.056 382.944 726.031 378.55 725.957C357.436 725.543 335.435 726.852 314.455 725.299C305.733 724.654 295.467 713.388 294.904 705.011C294.081 692.742 294.519 679.574 294.676 667.281C294.883 651.078 302.483 641.277 318.583 638.629Z"/><path fill="#474747" d="M632.819 401.704C639.303 401.006 657.701 401.528 664.759 401.531L690.127 401.487C696.01 401.481 703.563 401.25 709.24 402.276C715.065 403.303 720.56 405.708 725.266 409.292C736.207 417.707 739.448 430.827 738.536 444.077C737.75 455.494 740.027 470.905 737.642 481.822C736.576 486.765 734.372 491.391 731.203 495.332C724.632 503.601 716.81 506.744 706.625 507.988C690.46 508.122 674.295 508.161 658.129 508.105C647.229 508.106 636.138 508.655 625.23 507.06C610.59 504.921 600.008 490.977 599.102 476.65C598.67 469.814 598.807 461.816 598.916 454.938C599.136 441.071 596.709 425.482 606.72 414.243C613.843 406.152 622.374 402.625 632.819 401.704Z"/><path fill="#14B8A6" d="M633.567 411.228C647.111 410.892 665.455 411.418 677.298 411.077C712.39 410.068 732.331 410.048 728.991 453.029C728.439 460.127 729.877 470.508 728.358 478.528C727.659 482.359 726.073 485.973 723.725 489.081C718.502 495.908 712.13 497.453 704.208 498.441C688.588 498.648 672.792 498.471 657.13 498.521C647.53 498.184 637.046 499.284 627.584 497.689C617.272 495.91 608.963 486.478 608.62 475.982C608.172 464.701 608.709 453.148 608.479 441.885C608.122 424.448 614.63 412.498 633.567 411.228Z"/><path fill="#474747" d="M632.242 630.676C640.08 629.943 659.391 630.575 668.256 630.531C677.195 630.487 703.511 629.833 711.221 631.277C716.724 632.272 721.902 634.59 726.31 638.03C737.025 646.561 739.396 659.525 738.534 672.521C737.763 684.139 740.046 699.795 737.492 710.879C736.432 715.564 734.273 719.931 731.195 723.619C724.766 731.353 716.866 734.443 707.123 735.333C692.887 735.853 676.779 735.248 662.313 735.467C654.121 735.591 633.939 735.912 626.671 734.547C621.532 733.613 616.702 731.427 612.61 728.181C602.206 719.78 599.73 706.918 600.479 694.158C601.17 682.399 599.008 666.53 601.736 655.269C602.835 650.783 604.926 646.601 607.854 643.03C614.26 635.08 622.307 631.743 632.242 630.676Z"/><path fill="#474747" d="M630.251 516.138C632.314 515.919 635.581 515.855 637.652 515.883C661.333 516.204 687.075 515.257 710.518 516.547C722.882 517.228 736.749 530.616 737.394 542.444C738.076 554.956 739.909 582.594 737.556 594.353C736.63 598.924 734.79 603.26 732.144 607.1C726.464 615.421 718.464 619.011 708.84 620.853C698.764 621.834 678.231 621.077 667.469 621.256C658.981 621.396 634.842 621.666 627.904 620.558C622.919 619.787 618.178 617.876 614.053 614.973C595.032 601.444 602.409 577.445 600.693 557.476C600.318 553.114 600.642 546.149 601.54 541.956C602.492 537.524 604.371 533.344 607.052 529.689C612.818 521.769 620.714 517.626 630.251 516.138Z"/><path fill="#14B8A6" d="M441.541 453.028C441.493 445.318 440.85 435.22 442.587 427.851C446.286 412.157 461.638 401.364 477.524 401.547C484.617 401.628 491.955 401.452 499.062 401.446L545.779 401.431C557.436 401.513 566.043 403.865 574.529 412.399C585.563 423.494 584.014 437.384 584.006 451.706C584.001 459.379 584.112 467.529 583.932 475.203C583.747 484.077 579.991 492.501 573.513 498.568C568.937 502.851 563.282 505.807 557.153 507.118C551.021 508.474 543.423 508.201 537.105 508.2C516.68 508.198 496.241 508.249 475.816 508.084C466.061 508.005 456.772 504.211 450.091 497.05C444.357 490.982 441.271 482.883 441.511 474.538C444.566 474.267 447.618 473.955 450.665 473.604C470.306 472.513 490.54 466.586 507.607 456.88C513.355 453.611 522.533 449.874 522.775 442.142C522.965 436.064 517.073 430.107 510.811 431.909C505.296 433.497 500.687 437.324 495.619 440.01C481.701 447.217 466.445 451.476 450.806 452.52C447.635 452.787 444.729 453.08 441.541 453.028Z"/><path fill="#474747" d="M441.541 453.028C441.493 445.318 440.85 435.22 442.587 427.851C446.286 412.157 461.638 401.364 477.524 401.547C484.617 401.628 491.955 401.452 499.062 401.446L545.779 401.431C557.436 401.513 566.043 403.865 574.529 412.399C585.563 423.494 584.014 437.384 584.006 451.706C584.001 459.379 584.112 467.529 583.932 475.203C583.747 484.077 579.991 492.501 573.513 498.568C568.937 502.851 563.282 505.807 557.153 507.118C551.021 508.474 543.423 508.201 537.105 508.2C516.68 508.198 496.241 508.249 475.816 508.084C466.061 508.005 456.772 504.211 450.091 497.05C444.357 490.982 441.271 482.883 441.511 474.538C444.566 474.267 447.618 473.955 450.665 473.604C452.191 491.503 462.579 498.207 479.646 498.432C498.514 498.681 517.411 498.373 536.282 498.556C542.067 498.612 548.594 499.008 554.243 497.821C559.136 496.808 563.642 494.433 567.244 490.97C576.94 481.505 574.008 470.575 574.469 459.733C576.214 418.749 570.768 409.11 528.114 411.24C511.138 412.088 485.934 409.614 468.299 412.341C465.081 412.839 460.421 416.617 458.038 418.962C449.208 427.647 450.723 441.172 450.806 452.52C447.635 452.787 444.729 453.08 441.541 453.028Z"/><path fill="#14B8A6" d="M450.051 323.287C448.281 323.174 443.261 323.095 442.826 321.753C439.581 311.748 447.516 298.085 456.255 293.085C461.963 289.82 464.437 288.612 470.576 287.606C483.91 286.626 500.549 287.014 513.819 287.138C523.206 287.226 548.388 286.207 556.229 287.982C565.491 290.15 573.515 295.905 578.54 303.982C587.202 317.827 582.158 339.913 583.431 355.811C584.461 368.67 578.779 382.018 567.359 388.874C562.995 391.464 558.15 393.14 553.118 393.803C547.511 394.549 540.152 394.248 534.429 394.197C514.513 394.017 494.588 394.193 474.676 394.031C472.215 394.007 468.969 393.501 466.593 392.899C457.861 390.664 450.391 385.02 445.855 377.231C440.382 367.726 441.383 358.037 441.568 347.417L451.52 347.448C460.08 348.654 466.647 349.446 474.972 351.913C472.676 352.232 470.165 352.435 467.973 353.202C465.47 354.078 463.246 355.487 462.123 357.977C460.953 360.57 460.891 363.882 461.984 366.506C462.936 368.791 464.924 370.805 467.298 371.603C472.558 373.373 517.55 368.735 522.43 365.772C525.426 363.953 526.286 360.42 527.157 357.273C526.896 356.321 526.335 354.39 525.782 353.615C518.277 343.091 510.292 332.767 502.451 322.486C499.367 318.443 496.358 314.084 491.273 312.784C485.833 311.393 481.376 314.128 480.205 319.628C479.103 325.117 481.993 328.886 484.897 333.059C472.431 330.041 462.443 328.951 450.54 326.436C449.677 325.06 449.986 325.259 450.051 323.287Z"/><path fill="#474747" d="M450.051 323.287C448.281 323.174 443.261 323.095 442.826 321.753C439.581 311.748 447.516 298.085 456.255 293.085C461.963 289.82 464.437 288.612 470.576 287.606C483.91 286.626 500.549 287.014 513.819 287.138C523.206 287.226 548.388 286.207 556.229 287.982C565.491 290.15 573.515 295.905 578.54 303.982C587.202 317.827 582.158 339.913 583.431 355.811C584.461 368.67 578.779 382.018 567.359 388.874C562.995 391.464 558.15 393.14 553.118 393.803C547.511 394.549 540.152 394.248 534.429 394.197C514.513 394.017 494.588 394.193 474.676 394.031C472.215 394.007 468.969 393.501 466.593 392.899C457.861 390.664 450.391 385.02 445.855 377.231C440.382 367.726 441.383 358.037 441.568 347.417L451.52 347.448C450.922 360.301 450.065 376.071 464.691 382.275C467.003 383.252 469.454 383.859 471.955 384.073C476.452 384.499 481.006 384.501 485.533 384.484C507.292 384.372 529.195 384.846 550.933 384.302C563.053 383.999 573.278 374.14 573.906 362.016C574.478 350.993 574.067 340.012 574.077 328.977C574.083 322.809 574.012 316.531 571.366 310.821C567.463 301.73 557.644 296.84 547.995 296.905C522.919 297.076 497.584 296.353 472.539 297.285C464.663 297.578 456.768 303.499 453.484 310.486C451.545 314.61 451.487 319.068 450.051 323.287Z"/><path fill="#474747" d="M345.706 287.247L372.649 287.153C388.369 287.062 403.23 285.146 415.455 297.246C424.488 306.187 424.954 316.563 424.995 328.306C392.767 333.5 364.667 351.311 355.177 383.89C354.151 387.534 353.718 389.762 353.096 393.513C345.562 393.27 337.118 393.222 329.482 393.19C315.622 393.132 305.637 393.245 294.848 383.14C282.001 371.108 285.794 353.342 285.17 337.11C284.624 322.908 284.351 307.249 295.298 296.788C305.296 287.234 315.146 287.38 327.92 287.31L345.706 287.247Z"/><path fill="#14B8A6" d="M426.142 472.206C425.618 481.975 422.473 490.498 415.599 497.652C406.77 506.84 396.361 508.111 384.342 508.239C369.747 508.357 355.151 508.368 340.555 508.273C324.214 508.191 307.295 510.268 294.797 497.846C282.579 485.701 285.56 469.296 285.145 453.611C284.755 438.865 283.712 422.89 295.281 411.836C306.938 400.748 317.134 401.348 331.756 401.403L352.905 401.486C352.939 405.12 353.214 407.405 353.677 411.026C357.945 431.682 368.08 445.458 385.582 457.236C393.736 462.724 406.823 468.503 416.569 470.127C419.751 470.859 422.943 471.552 426.142 472.206Z"/><path fill="#474747" d="M426.142 472.206C425.618 481.975 422.473 490.498 415.599 497.652C406.77 506.84 396.361 508.111 384.342 508.239C369.747 508.357 355.151 508.368 340.555 508.273C324.214 508.191 307.295 510.268 294.797 497.846C282.579 485.701 285.56 469.296 285.145 453.611C284.755 438.865 283.712 422.89 295.281 411.836C306.938 400.748 317.134 401.348 331.756 401.403L352.905 401.486C352.939 405.12 353.214 407.405 353.677 411.026C342.214 411.064 323.405 410.103 312.724 412.549C288.211 418.162 295.566 452.333 294.654 470.637C293.988 484.014 302.347 496.636 316.407 497.924C340.732 499.158 366.514 498.724 390.923 498.465C409.055 498.274 414.435 485.728 416.569 470.127C419.751 470.859 422.943 471.552 426.142 472.206Z"/><path fill="#474747" d="M488.932 317.939C489.962 318.049 491.009 318.187 491.972 318.591C493.641 319.291 520.289 354.636 520.876 356.867C521.338 358.621 520.639 360.044 519.746 361.463C516.028 363.893 484.952 364.961 478.158 366.561C473.579 367.639 469.192 368.118 466.446 363.657C465.699 355.976 490.663 355.272 496.886 354.496L495.446 353.809C455.627 335.054 394.728 335.949 372.319 381.079C358.181 409.552 377.973 439.044 404.838 450.356C432.06 461.82 460.955 460.099 488.314 449.526C492.492 447.785 510.285 437.096 513.184 437.493C514.479 437.671 515.593 438.425 516.389 439.432C517.162 440.41 517.533 441.566 517.2 442.81C515.527 449.065 495.469 457.276 489.584 459.908C464.942 470.931 430.239 470.828 405.197 461.175C387.971 454.536 370.479 441.321 362.865 424.08C356.593 410.251 356.21 394.467 361.803 380.35C368.845 362.235 385.555 346.914 403.276 339.764C435.837 326.626 467.964 331.93 499.183 344.351C496.483 341.175 484.725 326.126 485.357 321.626C485.627 319.707 487.382 318.766 488.932 317.939Z"/><path fill="#14B8A6" d="M372.826 401.663C388.376 401.348 403.161 399.318 415.462 411.084C423.574 418.842 425.862 428.089 426.028 438.884C426.062 443.044 426.069 447.204 426.047 451.364C422.873 450.607 419.315 449.837 416.219 448.913C413.759 448.262 411.347 447.441 409.001 446.456C392.151 439.212 381.502 428.813 374.641 412.062C373.873 408.367 373.256 405.402 372.826 401.663Z"/><path fill="#474747" d="M372.826 401.663C388.376 401.348 403.161 399.318 415.462 411.084C423.574 418.842 425.862 428.089 426.028 438.884C426.062 443.044 426.069 447.204 426.047 451.364C422.873 450.607 419.315 449.837 416.219 448.913C416.014 439.083 417.636 430.63 411.85 421.808C408.412 416.574 402.932 413.026 396.749 412.033C391.193 411.109 380.236 411.279 374.641 412.062C373.873 408.367 373.256 405.402 372.826 401.663Z"/><path fill="#474747" d="M423.279 349.596L424.516 349.552L425.242 350.276C427.07 361.685 424.24 375.307 415.638 383.423C404.275 394.146 391.558 393.083 377.125 392.703C374.937 392.546 375.706 392.989 374.331 391.915C377.973 369.974 402.96 353.825 423.279 349.596Z"/></svg>