<?xml version="1.0" encoding="utf-8" ?><svg xmlns="http://www.w3.org/2000/svg" xmlns:xlink="http://www.w3.org/1999/xlink" width="1024" height="1024" viewBox="0 0 1024 1024"><path fill="#2B2420" d="M502.307 139.714C551.796 137.946 600.955 148.435 645.412 170.249C716.396 205.049 770.711 266.54 796.482 341.277C804.848 365.711 811.767 400.347 811.731 426.385C811.061 495.658 787.15 565.515 757.674 627.311C714.319 718.205 651.213 792.043 579.855 861.852C570.563 871.051 560.984 879.955 551.13 888.549C542.122 896.477 536.727 902.073 525.205 906.011C496.759 912.876 483.745 898.114 464.152 880.319C434.855 853.202 407.012 824.556 380.737 794.501C297.399 699.255 224.331 573.142 216.281 443.835C211.548 367.804 242.746 292.235 293.688 236.282C347.557 177.546 422.668 142.778 502.307 139.714Z"/><path fill="#D97706" d="M501.777 159.716C523.236 158.242 551.229 161.787 572.125 166.136C644.129 181.398 707.066 224.758 746.979 286.599C789.312 351.296 799.36 422.773 782.124 497.488C751.691 629.408 673.18 742.322 577.62 835.618C566.798 846.174 555.813 856.561 544.668 866.776C537.844 873.05 530.891 880.055 523.158 885.09C520.085 886.597 518.031 887.294 514.567 887.55C510.85 887.834 507.121 887.201 503.707 885.706C497.887 883.146 482.236 868.825 476.713 863.732C447.12 836.442 418.657 807.245 392.371 776.751C382.921 765.787 372.875 754.692 364.106 743.28C353.061 728.63 342.554 713.583 332.606 698.167C324.239 685.39 314.894 671.512 307.417 658.292C272.619 596.77 240.441 517.542 236.646 446.498C233.137 374.61 258.434 304.29 306.934 251.112C357.332 195.056 426.87 163.735 501.777 159.716Z"/><path fill="#2B2420" d="M504.468 260.323C597.437 255.303 676.882 326.582 681.936 419.549C686.989 512.516 615.74 591.986 522.774 597.074C429.761 602.164 350.241 530.87 345.185 437.855C340.129 344.84 411.451 265.346 504.468 260.323Z"/><path fill="#D97706" d="M506.349 280.498C588.024 276.422 657.585 339.23 661.843 420.895C666.101 502.561 603.448 572.261 521.793 576.701C439.879 581.155 369.911 518.262 365.639 436.339C361.368 354.416 424.417 284.587 506.349 280.498Z"/></svg>