<svg id="mermaid-1785719082815" width="100%" xmlns="http://www.w3.org/2000/svg" xmlns:xlink="http://www.w3.org/1999/xlink" class="flowchart" style="max-width: 1057.765625px;" viewBox="0 0 1057.765625 1077.0343017578125" role="graphics-document document" aria-roledescription="flowchart-v2"><style>#mermaid-1785719082815{font-family:ui-sans-serif,system-ui,sans-serif;font-size:13px;fill:#000000;}@keyframes edge-animation-frame{from{stroke-dashoffset:0;}}@keyframes dash{to{stroke-dashoffset:0;}}#mermaid-1785719082815 .edge-animation-slow{stroke-dasharray:9,5!important;stroke-dashoffset:900;animation:dash 50s linear infinite;stroke-linecap:round;}#mermaid-1785719082815 .edge-animation-fast{stroke-dasharray:9,5!important;stroke-dashoffset:900;animation:dash 20s linear infinite;stroke-linecap:round;}#mermaid-1785719082815 .error-icon{fill:#552222;}#mermaid-1785719082815 .error-text{fill:#552222;stroke:#552222;}#mermaid-1785719082815 .edge-thickness-normal{stroke-width:1px;}#mermaid-1785719082815 .edge-thickness-thick{stroke-width:3.5px;}#mermaid-1785719082815 .edge-pattern-solid{stroke-dasharray:0;}#mermaid-1785719082815 .edge-thickness-invisible{stroke-width:0;fill:none;}#mermaid-1785719082815 .edge-pattern-dashed{stroke-dasharray:3;}#mermaid-1785719082815 .edge-pattern-dotted{stroke-dasharray:2;}#mermaid-1785719082815 .marker{fill:#666;stroke:#666;}#mermaid-1785719082815 .marker.cross{stroke:#666;}#mermaid-1785719082815 svg{font-family:ui-sans-serif,system-ui,sans-serif;font-size:13px;}#mermaid-1785719082815 p{margin:0;}#mermaid-1785719082815 .label{font-family:ui-sans-serif,system-ui,sans-serif;color:#000000;}#mermaid-1785719082815 .cluster-label text{fill:#333;}#mermaid-1785719082815 .cluster-label span{color:#333;}#mermaid-1785719082815 .cluster-label span p{background-color:transparent;}#mermaid-1785719082815 .label text,#mermaid-1785719082815 span{fill:#000000;color:#000000;}#mermaid-1785719082815 .node rect,#mermaid-1785719082815 .node circle,#mermaid-1785719082815 .node ellipse,#mermaid-1785719082815 .node polygon,#mermaid-1785719082815 .node path{fill:#eee;stroke:#999;stroke-width:1px;}#mermaid-1785719082815 .rough-node .label text,#mermaid-1785719082815 .node .label text,#mermaid-1785719082815 .image-shape .label,#mermaid-1785719082815 .icon-shape .label{text-anchor:middle;}#mermaid-1785719082815 .node .katex path{fill:#000;stroke:#000;stroke-width:1px;}#mermaid-1785719082815 .rough-node .label,#mermaid-1785719082815 .node .label,#mermaid-1785719082815 .image-shape .label,#mermaid-1785719082815 .icon-shape .label{text-align:center;}#mermaid-1785719082815 .node.clickable{cursor:pointer;}#mermaid-1785719082815 .root .anchor path{fill:#666!important;stroke-width:0;stroke:#666;}#mermaid-1785719082815 .arrowheadPath{fill:#333333;}#mermaid-1785719082815 .edgePath .path{stroke:#666;stroke-width:1px;}#mermaid-1785719082815 .flowchart-link{stroke:#666;fill:none;}#mermaid-1785719082815 .edgeLabel{background-color:white;text-align:center;}#mermaid-1785719082815 .edgeLabel p{background-color:white;}#mermaid-1785719082815 .edgeLabel rect{opacity:0.5;background-color:white;fill:white;}#mermaid-1785719082815 .labelBkg{background-color:rgba(255, 255, 255, 0.5);}#mermaid-1785719082815 .cluster rect{fill:hsl(0, 0%, 98.9215686275%);stroke:#707070;stroke-width:1px;}#mermaid-1785719082815 .cluster text{fill:#333;}#mermaid-1785719082815 .cluster span{color:#333;}#mermaid-1785719082815 div.mermaidTooltip{position:absolute;text-align:center;max-width:200px;padding:2px;font-family:ui-sans-serif,system-ui,sans-serif;font-size:12px;background:hsl(-160, 0%, 93.3333333333%);border:1px solid #707070;border-radius:2px;pointer-events:none;z-index:100;}#mermaid-1785719082815 .flowchartTitleText{text-anchor:middle;font-size:18px;fill:#000000;}#mermaid-1785719082815 rect.text{fill:none;stroke-width:0;}#mermaid-1785719082815 .icon-shape,#mermaid-1785719082815 .image-shape{background-color:white;text-align:center;}#mermaid-1785719082815 .icon-shape p,#mermaid-1785719082815 .image-shape p{background-color:white;padding:2px;}#mermaid-1785719082815 .icon-shape .label rect,#mermaid-1785719082815 .image-shape .label rect{opacity:0.5;background-color:white;fill:white;}#mermaid-1785719082815 .label-icon{display:inline-block;height:1em;overflow:visible;vertical-align:-0.125em;}#mermaid-1785719082815 .node .label-icon path{fill:currentColor;stroke:revert;stroke-width:revert;}#mermaid-1785719082815 .node .neo-node{stroke:#999;}#mermaid-1785719082815 [data-look="neo"].node rect,#mermaid-1785719082815 [data-look="neo"].cluster rect,#mermaid-1785719082815 [data-look="neo"].node polygon{stroke:url(#mermaid-1785719082815-gradient);filter:drop-shadow( 1px 2px 2px rgba(185,185,185,1));}#mermaid-1785719082815 [data-look="neo"].swimlane.cluster rect{filter:none;}#mermaid-1785719082815 [data-look="neo"].node path{stroke:url(#mermaid-1785719082815-gradient);stroke-width:1px;}#mermaid-1785719082815 [data-look="neo"].node .outer-path{filter:drop-shadow( 1px 2px 2px rgba(185,185,185,1));}#mermaid-1785719082815 [data-look="neo"].node .neo-line path{stroke:#999;filter:none;}#mermaid-1785719082815 [data-look="neo"].node circle{stroke:url(#mermaid-1785719082815-gradient);filter:drop-shadow( 1px 2px 2px rgba(185,185,185,1));}#mermaid-1785719082815 [data-look="neo"].node circle .state-start{fill:#000000;}#mermaid-1785719082815 [data-look="neo"].icon-shape .icon{fill:url(#mermaid-1785719082815-gradient);filter:drop-shadow( 1px 2px 2px rgba(185,185,185,1));}#mermaid-1785719082815 [data-look="neo"].icon-shape .icon-neo path{stroke:url(#mermaid-1785719082815-gradient);filter:drop-shadow( 1px 2px 2px rgba(185,185,185,1));}#mermaid-1785719082815 :root{--mermaid-font-family:"trebuchet ms",verdana,arial,sans-serif;}</style><g><marker id="mermaid-1785719082815_flowchart-v2-pointEnd" class="marker flowchart-v2" viewBox="0 0 10 10" refX="5" refY="5" markerUnits="userSpaceOnUse" markerWidth="8" markerHeight="8" orient="auto"><path d="M 0 0 L 10 5 L 0 10 z" class="arrowMarkerPath" style="stroke-width: 1; stroke-dasharray: 1, 0;"></path></marker><marker id="mermaid-1785719082815_flowchart-v2-pointStart" class="marker flowchart-v2" viewBox="0 0 10 10" refX="4.5" refY="5" markerUnits="userSpaceOnUse" markerWidth="8" markerHeight="8" orient="auto"><path d="M 0 5 L 10 10 L 10 0 z" class="arrowMarkerPath" style="stroke-width: 1; stroke-dasharray: 1, 0;"></path></marker><marker id="mermaid-1785719082815_flowchart-v2-pointEnd-margin" class="marker flowchart-v2" viewBox="0 0 11.5 14" refX="11.5" refY="7" markerUnits="userSpaceOnUse" markerWidth="10.5" markerHeight="14" orient="auto"><path d="M 0 0 L 11.5 7 L 0 14 z" class="arrowMarkerPath" style="stroke-width: 0; stroke-dasharray: 1, 0;"></path></marker><marker id="mermaid-1785719082815_flowchart-v2-pointStart-margin" class="marker flowchart-v2" viewBox="0 0 11.5 14" refX="1" refY="7" markerUnits="userSpaceOnUse" markerWidth="11.5" markerHeight="14" orient="auto"><polygon points="0,7 11.5,14 11.5,0" class="arrowMarkerPath" style="stroke-width: 0; stroke-dasharray: 1, 0;"></polygon></marker><marker id="mermaid-1785719082815_flowchart-v2-circleEnd" class="marker flowchart-v2" viewBox="0 0 10 10" refX="11" refY="5" markerUnits="userSpaceOnUse" markerWidth="11" markerHeight="11" orient="auto"><circle cx="5" cy="5" r="5" class="arrowMarkerPath" style="stroke-width: 1; stroke-dasharray: 1, 0;"></circle></marker><marker id="mermaid-1785719082815_flowchart-v2-circleStart" class="marker flowchart-v2" viewBox="0 0 10 10" refX="-1" refY="5" markerUnits="userSpaceOnUse" markerWidth="11" markerHeight="11" orient="auto"><circle cx="5" cy="5" r="5" class="arrowMarkerPath" style="stroke-width: 1; stroke-dasharray: 1, 0;"></circle></marker><marker id="mermaid-1785719082815_flowchart-v2-circleEnd-margin" class="marker flowchart-v2" viewBox="0 0 10 10" refY="5" refX="12.25" markerUnits="userSpaceOnUse" markerWidth="14" markerHeight="14" orient="auto"><circle cx="5" cy="5" r="5" class="arrowMarkerPath" style="stroke-width: 0; stroke-dasharray: 1, 0;"></circle></marker><marker id="mermaid-1785719082815_flowchart-v2-circleStart-margin" class="marker flowchart-v2" viewBox="0 0 10 10" refX="-2" refY="5" markerUnits="userSpaceOnUse" markerWidth="14" markerHeight="14" orient="auto"><circle cx="5" cy="5" r="5" class="arrowMarkerPath" style="stroke-width: 0; stroke-dasharray: 1, 0;"></circle></marker><marker id="mermaid-1785719082815_flowchart-v2-crossEnd" class="marker cross flowchart-v2" viewBox="0 0 11 11" refX="12" refY="5.2" markerUnits="userSpaceOnUse" markerWidth="11" markerHeight="11" orient="auto"><path d="M 1,1 l 9,9 M 10,1 l -9,9" class="arrowMarkerPath" style="stroke-width: 2; stroke-dasharray: 1, 0;"></path></marker><marker id="mermaid-1785719082815_flowchart-v2-crossStart" class="marker cross flowchart-v2" viewBox="0 0 11 11" refX="-1" refY="5.2" markerUnits="userSpaceOnUse" markerWidth="11" markerHeight="11" orient="auto"><path d="M 1,1 l 9,9 M 10,1 l -9,9" class="arrowMarkerPath" style="stroke-width: 2; stroke-dasharray: 1, 0;"></path></marker><marker id="mermaid-1785719082815_flowchart-v2-crossEnd-margin" class="marker cross flowchart-v2" viewBox="0 0 15 15" refX="17.7" refY="7.5" markerUnits="userSpaceOnUse" markerWidth="12" markerHeight="12" orient="auto"><path d="M 1,1 L 14,14 M 1,14 L 14,1" class="arrowMarkerPath" style="stroke-width: 2.5;"></path></marker><marker id="mermaid-1785719082815_flowchart-v2-crossStart-margin" class="marker cross flowchart-v2" viewBox="0 0 15 15" refX="-3.5" refY="7.5" markerUnits="userSpaceOnUse" markerWidth="12" markerHeight="12" orient="auto"><path d="M 1,1 L 14,14 M 1,14 L 14,1" class="arrowMarkerPath" style="stroke-width: 2.5; stroke-dasharray: 1, 0;"></path></marker><g class="root"><g class="clusters"><g class="cluster" id="mermaid-1785719082815-prod" data-look="classic"><rect style="" x="8" y="92.5" width="1041.765625" height="976.534294128418"></rect><g class="cluster-label" transform="translate(470.9140625, 92.5)"><foreignObject width="115.9375" height="19.5"><div xmlns="http://www.w3.org/1999/xhtml" style="display: table-cell; white-space: nowrap; line-height: 1.5;"><span class="nodeLabel"><p>Production Server</p></span></div></foreignObject></g></g><g class="cluster" id="mermaid-1785719082815-obs" data-look="classic"><rect style="" x="28" y="336" width="359.046875" height="708.034294128418"></rect><g class="cluster-label" transform="translate(164.453125, 336)"><foreignObject width="86.140625" height="19.5"><div xmlns="http://www.w3.org/1999/xhtml" style="display: table-cell; white-space: nowrap; line-height: 1.5;"><span class="nodeLabel"><p>Observability</p></span></div></foreignObject></g></g><g class="cluster" id="mermaid-1785719082815-stores" data-look="classic"><rect style="" x="407.046875" y="336" width="374.57421875" height="115.53429412841797"></rect><g class="cluster-label" transform="translate(556.177734375, 336)"><foreignObject width="76.3125" height="19.5"><div xmlns="http://www.w3.org/1999/xhtml" style="display: table-cell; white-space: nowrap; line-height: 1.5;"><span class="nodeLabel"><p>Data Stores</p></span></div></foreignObject></g></g></g><g class="edgePaths"><path d="M531.406,43L531.323,47.083C531.24,51.167,531.073,59.333,530.99,67.583C530.906,75.833,530.906,84.167,530.906,91.833C530.906,99.5,530.906,106.5,530.906,110L530.906,113.5" id="mermaid-1785719082815-L_Browser_Nginx_0" class="edge-thickness-normal edge-pattern-solid edge-thickness-normal edge-pattern-solid flowchart-link" style=";" data-edge="true" data-et="edge" data-id="L_Browser_Nginx_0" data-points="W3sieCI6NTMxLjQwNjI1LCJ5Ijo0M30seyJ4Ijo1MzAuOTA2MjUsInkiOjY3LjV9LHsieCI6NTMwLjkwNjI1LCJ5Ijo5Mi41fSx7IngiOjUzMC45MDYyNSwieSI6MTE3LjV9XQ==" data-look="classic" marker-end="url(#mermaid-1785719082815_flowchart-v2-pointEnd)"></path><path d="M530.906,167L530.906,171.167C530.906,175.333,530.906,183.667,530.906,191.333C530.906,199,530.906,206,530.906,209.5L530.906,213" id="mermaid-1785719082815-L_Nginx_Backend_0" class="edge-thickness-normal edge-pattern-solid edge-thickness-normal edge-pattern-solid flowchart-link" style=";" data-edge="true" data-et="edge" data-id="L_Nginx_Backend_0" data-points="W3sieCI6NTMwLjkwNjI1LCJ5IjoxNjd9LHsieCI6NTMwLjkwNjI1LCJ5IjoxOTJ9LHsieCI6NTMwLjkwNjI1LCJ5IjoyMTd9XQ==" data-look="classic" marker-end="url(#mermaid-1785719082815_flowchart-v2-pointEnd)"></path><path d="M501.186,266.5L494.231,272.292C487.276,278.083,473.367,289.667,466.412,301.25C459.457,312.833,459.457,324.417,460.81,334.381C462.163,344.346,464.869,352.692,466.222,356.865L467.574,361.038" id="mermaid-1785719082815-L_Backend_MySQL_0" class="edge-thickness-normal edge-pattern-solid edge-thickness-normal edge-pattern-solid flowchart-link" style=";" data-edge="true" data-et="edge" data-id="L_Backend_MySQL_0" data-points="W3sieCI6NTAxLjE4NTc3NjY1NDQxMTc3LCJ5IjoyNjYuNX0seyJ4Ijo0NTkuNDU3MDMxMjUsInkiOjMwMS4yNX0seyJ4Ijo0NTkuNDU3MDMxMjUsInkiOjMzNn0seyJ4Ijo0NjguODA3OTk2MDA1MTY0ODUsInkiOjM2NC44NDI5NTc3OTAyMDcyN31d" data-look="classic" marker-end="url(#mermaid-1785719082815_flowchart-v2-pointEnd)"></path><path d="M552.717,266.5L557.821,272.292C562.925,278.083,573.132,289.667,578.236,301.25C583.34,312.833,583.34,324.417,583.34,334.506C583.34,344.596,583.34,353.192,583.34,357.49L583.34,361.789" id="mermaid-1785719082815-L_Backend_Redis_0" class="edge-thickness-normal edge-pattern-solid edge-thickness-normal edge-pattern-solid flowchart-link" style=";" data-edge="true" data-et="edge" data-id="L_Backend_Redis_0" data-points="W3sieCI6NTUyLjcxNjg2MjUyNjI2MDUsInkiOjI2Ni41fSx7IngiOjU4My4zMzk4NDM3NSwieSI6MzAxLjI1fSx7IngiOjU4My4zMzk4NDM3NSwieSI6MzM2fSx7IngiOjU4My4zMzk4NDM3NSwieSI6MzY1Ljc4ODUxODkwNTYzOTY1fV0=" data-look="classic" marker-end="url(#mermaid-1785719082815_flowchart-v2-pointEnd)"></path><path d="M602.285,266.5L618.988,272.292C635.691,278.083,669.098,289.667,685.801,301.25C702.504,312.833,702.504,324.417,702.504,333.708C702.504,343,702.504,350,702.504,353.5L702.504,357" id="mermaid-1785719082815-L_Backend_Meilisearch_0" class="edge-thickness-normal edge-pattern-solid edge-thickness-normal edge-pattern-solid flowchart-link" style=";" data-edge="true" data-et="edge" data-id="L_Backend_Meilisearch_0" data-points="W3sieCI6NjAyLjI4NTEwNzAxMTU1NDYsInkiOjI2Ni41fSx7IngiOjcwMi41MDM5MDYyNSwieSI6MzAxLjI1fSx7IngiOjcwMi41MDM5MDYyNSwieSI6MzM2fSx7IngiOjcwMi41MDM5MDYyNSwieSI6MzYxfV0=" data-look="classic" marker-end="url(#mermaid-1785719082815_flowchart-v2-pointEnd)"></path><path d="M788.223,255.513L742.167,263.136C696.112,270.759,604.001,286.004,557.946,299.419C511.891,312.833,511.891,324.417,509.473,334.598C507.056,344.78,502.221,353.561,499.804,357.951L497.387,362.341" id="mermaid-1785719082815-L_Training_MySQL_0" class="edge-thickness-normal edge-pattern-solid edge-thickness-normal edge-pattern-solid flowchart-link" style=";" data-edge="true" data-et="edge" data-id="L_Training_MySQL_0" data-points="W3sieCI6Nzg4LjIyMjY1NjI1LCJ5IjoyNTUuNTEzNDQ0MTMxNzQxMX0seyJ4Ijo1MTEuODkwNjI1LCJ5IjozMDEuMjV9LHsieCI6NTExLjg5MDYyNSwieSI6MzM2fSx7IngiOjQ5NS40NTcyODQxMDQyNjU1NywieSI6MzY1Ljg0NDkxODAxMjQ2Mzg0fV0=" data-look="classic" marker-end="url(#mermaid-1785719082815_flowchart-v2-pointEnd)"></path><path d="M871.379,266.5L871.379,272.292C871.379,278.083,871.379,289.667,871.379,301.25C871.379,312.833,871.379,324.417,871.379,334.061C871.379,343.705,871.379,351.41,871.379,355.263L871.379,359.115" id="mermaid-1785719082815-L_Training_Artifacts_0" class="edge-thickness-normal edge-pattern-solid edge-thickness-normal edge-pattern-solid flowchart-link" style=";" data-edge="true" data-et="edge" data-id="L_Training_Artifacts_0" data-points="W3sieCI6ODcxLjM3ODkwNjI1LCJ5IjoyNjYuNX0seyJ4Ijo4NzEuMzc4OTA2MjUsInkiOjMwMS4yNX0seyJ4Ijo4NzEuMzc4OTA2MjUsInkiOjMzNn0seyJ4Ijo4NzEuMzc4OTA2MjUsInkiOjM2My4xMTU0NjcwNzE1MzMyfV0=" data-look="classic" marker-end="url(#mermaid-1785719082815_flowchart-v2-pointEnd)"></path><path d="M131.82,418.517L131.82,424.02C131.82,429.523,131.82,440.529,131.82,450.198C131.82,459.868,131.82,468.201,131.82,514.868C131.82,561.534,131.82,646.534,131.82,689.034L131.82,731.534" id="mermaid-1785719082815-L_Prom_Graf_0" class="edge-thickness-normal edge-pattern-solid edge-thickness-normal edge-pattern-solid flowchart-link" style=";" data-edge="true" data-et="edge" data-id="L_Prom_Graf_0" data-points="W3sieCI6MTMxLjgyMDMxMjUsInkiOjQxOC41MTcxNDcwNjQyMDl9LHsieCI6MTMxLjgyMDMxMjUsInkiOjQ1MS41MzQyOTQxMjg0MTc5N30seyJ4IjoxMzEuODIwMzEyNSwieSI6NDc2LjUzNDI5NDEyODQxNzk3fSx7IngiOjEzMS44MjAzMTI1LCJ5Ijo3MzUuNTM0Mjk0MTI4NDE4fV0=" data-look="classic" marker-end="url(#mermaid-1785719082815_flowchart-v2-pointEnd)"></path><path d="M447.703,254.155L395.056,262.004C342.409,269.853,237.115,285.552,184.467,299.192C131.82,312.833,131.82,324.417,131.82,335.045C131.82,345.672,131.82,355.345,131.82,360.181L131.82,365.017" id="mermaid-1785719082815-L_Backend_Prom_0" class="edge-thickness-normal edge-pattern-solid edge-thickness-normal edge-pattern-solid flowchart-link" style=";" data-edge="true" data-et="edge" data-id="L_Backend_Prom_0" data-points="W3sieCI6NDQ3LjcwMzEyNSwieSI6MjU0LjE1NDgxMTc3NjkxMjA4fSx7IngiOjEzMS44MjAzMTI1LCJ5IjozMDEuMjV9LHsieCI6MTMxLjgyMDMxMjUsInkiOjMzNn0seyJ4IjoxMzEuODIwMzEyNSwieSI6MzY5LjAxNzE0NzA2NDIwOX1d" data-look="classic" marker-end="url(#mermaid-1785719082815_flowchart-v2-pointEnd)"></path><path d="M447.703,263.315L423.31,269.638C398.917,275.96,350.13,288.605,325.737,300.719C301.344,312.833,301.344,324.417,301.344,335.045C301.344,345.672,301.344,355.345,301.344,360.181L301.344,365.017" id="mermaid-1785719082815-L_Backend_Jaeger_0" class="edge-thickness-normal edge-pattern-solid edge-thickness-normal edge-pattern-solid flowchart-link" style=";" data-edge="true" data-et="edge" data-id="L_Backend_Jaeger_0" data-points="W3sieCI6NDQ3LjcwMzEyNSwieSI6MjYzLjMxNTMwNzY1MDQyMn0seyJ4IjozMDEuMzQzNzUsInkiOjMwMS4yNX0seyJ4IjozMDEuMzQzNzUsInkiOjMzNn0seyJ4IjozMDEuMzQzNzUsInkiOjM2OS4wMTcxNDcwNjQyMDl9XQ==" data-look="classic" marker-end="url(#mermaid-1785719082815_flowchart-v2-pointEnd)"></path><path d="M614.109,260.037L645.361,266.906C676.613,273.775,739.117,287.512,770.369,300.173C801.621,312.833,801.621,324.417,801.621,339.836C801.621,355.256,801.621,374.511,801.621,393.767C801.621,413.023,801.621,432.279,801.621,446.073C801.621,459.868,801.621,468.201,802.615,475.893C803.608,483.584,805.595,490.634,806.588,494.159L807.582,497.684" id="mermaid-1785719082815-L_Backend_ms_0" class="edge-thickness-normal edge-pattern-solid edge-thickness-normal edge-pattern-solid flowchart-link" style=";" data-edge="true" data-et="edge" data-id="L_Backend_ms_0" data-points="W3sieCI6NjE0LjEwOTM3NSwieSI6MjYwLjAzNzA4NzEzOTA4NDg2fSx7IngiOjgwMS42MjEwOTM3NSwieSI6MzAxLjI1fSx7IngiOjgwMS42MjEwOTM3NSwieSI6MzM2fSx7IngiOjgwMS42MjEwOTM3NSwieSI6MzkzLjc2NzE0NzA2NDIwOX0seyJ4Ijo4MDEuNjIxMDkzNzUsInkiOjQ1MS41MzQyOTQxMjg0MTc5N30seyJ4Ijo4MDEuNjIxMDkzNzUsInkiOjQ3Ni41MzQyOTQxMjg0MTc5N30seyJ4Ijo4MDguNjY2Nzk4NTk1ODE1LCJ5Ijo1MDEuNTM0Mjk0MTI4NDE3OTd9XQ==" data-look="classic" marker-end="url(#mermaid-1785719082815_flowchart-v2-pointEnd)"></path><path d="M871.379,424.419L871.379,428.938C871.379,433.457,871.379,442.496,871.379,451.182C871.379,459.868,871.379,468.201,871.505,475.868C871.631,483.535,871.883,490.536,872.009,494.036L872.135,497.537" id="mermaid-1785719082815-L_Artifacts_ms_0" class="edge-thickness-normal edge-pattern-solid edge-thickness-normal edge-pattern-solid flowchart-link" style=";" data-edge="true" data-et="edge" data-id="L_Artifacts_ms_0" data-points="W3sieCI6ODcxLjM3ODkwNjI1LCJ5Ijo0MjQuNDE4ODI3MDU2ODg0Nzd9LHsieCI6ODcxLjM3ODkwNjI1LCJ5Ijo0NTEuNTM0Mjk0MTI4NDE3OTd9LHsieCI6ODcxLjM3ODkwNjI1LCJ5Ijo0NzYuNTM0Mjk0MTI4NDE3OTd9LHsieCI6ODcyLjI3ODU0ODMyMDQ4NDYsInkiOjUwMS41MzQyOTQxMjg0MTc5N31d" data-look="classic" marker-end="url(#mermaid-1785719082815_flowchart-v2-pointEnd)"></path><path d="M912.6,266.5L922.246,272.292C931.892,278.083,951.184,289.667,960.831,301.25C970.477,312.833,970.477,324.417,970.477,339.836C970.477,355.256,970.477,374.511,970.477,393.767C970.477,413.023,970.477,432.279,970.477,446.073C970.477,459.868,970.477,468.201,969.371,475.898C968.265,483.595,966.053,490.656,964.947,494.187L963.841,497.717" id="mermaid-1785719082815-L_Training_ms_0" class="edge-thickness-normal edge-pattern-dotted edge-thickness-normal edge-pattern-solid flowchart-link" style=";" data-edge="true" data-et="edge" data-id="L_Training_ms_0" data-points="W3sieCI6OTEyLjYwMDIwMDIzNjM0NDYsInkiOjI2Ni41fSx7IngiOjk3MC40NzY1NjI1LCJ5IjozMDEuMjV9LHsieCI6OTcwLjQ3NjU2MjUsInkiOjMzNn0seyJ4Ijo5NzAuNDc2NTYyNSwieSI6MzkzLjc2NzE0NzA2NDIwOX0seyJ4Ijo5NzAuNDc2NTYyNSwieSI6NDUxLjUzNDI5NDEyODQxNzk3fSx7IngiOjk3MC40NzY1NjI1LCJ5Ijo0NzYuNTM0Mjk0MTI4NDE3OTd9LHsieCI6OTYyLjY0NTEzMzUzNTI0MjMsInkiOjUwMS41MzQyOTQxMjg0MTc5N31d" data-look="classic" marker-end="url(#mermaid-1785719082815_flowchart-v2-pointEnd)"></path></g><g class="edgeLabels"><g class="edgeLabel"><g class="label" data-id="L_Browser_Nginx_0" transform="translate(0, 0)"><foreignObject width="0" height="0"><div xmlns="http://www.w3.org/1999/xhtml" class="labelBkg" style="display: table-cell; white-space: nowrap; line-height: 1.5; max-width: 200px; text-align: center;"><span class="edgeLabel"></span></div></foreignObject></g></g><g class="edgeLabel"><g class="label" data-id="L_Nginx_Backend_0" transform="translate(0, 0)"><foreignObject width="0" height="0"><div xmlns="http://www.w3.org/1999/xhtml" class="labelBkg" style="display: table-cell; white-space: nowrap; line-height: 1.5; max-width: 200px; text-align: center;"><span class="edgeLabel"></span></div></foreignObject></g></g><g class="edgeLabel"><g class="label" data-id="L_Backend_MySQL_0" transform="translate(0, 0)"><foreignObject width="0" height="0"><div xmlns="http://www.w3.org/1999/xhtml" class="labelBkg" style="display: table-cell; white-space: nowrap; line-height: 1.5; max-width: 200px; text-align: center;"><span class="edgeLabel"></span></div></foreignObject></g></g><g class="edgeLabel"><g class="label" data-id="L_Backend_Redis_0" transform="translate(0, 0)"><foreignObject width="0" height="0"><div xmlns="http://www.w3.org/1999/xhtml" class="labelBkg" style="display: table-cell; white-space: nowrap; line-height: 1.5; max-width: 200px; text-align: center;"><span class="edgeLabel"></span></div></foreignObject></g></g><g class="edgeLabel"><g class="label" data-id="L_Backend_Meilisearch_0" transform="translate(0, 0)"><foreignObject width="0" height="0"><div xmlns="http://www.w3.org/1999/xhtml" class="labelBkg" style="display: table-cell; white-space: nowrap; line-height: 1.5; max-width: 200px; text-align: center;"><span class="edgeLabel"></span></div></foreignObject></g></g><g class="edgeLabel" transform="translate(511.890625, 301.25)"><g class="label" data-id="L_Training_MySQL_0" transform="translate(-18.03125, -9.75)"><foreignObject width="36.0625" height="19.5"><div xmlns="http://www.w3.org/1999/xhtml" class="labelBkg" style="display: table-cell; white-space: nowrap; line-height: 1.5; max-width: 200px; text-align: center;"><span class="edgeLabel"><p>reads</p></span></div></foreignObject></g></g><g class="edgeLabel" transform="translate(871.37890625, 301.25)"><g class="label" data-id="L_Training_Artifacts_0" transform="translate(-30.875, -9.75)"><foreignObject width="61.75" height="19.5"><div xmlns="http://www.w3.org/1999/xhtml" class="labelBkg" style="display: table-cell; white-space: nowrap; line-height: 1.5; max-width: 200px; text-align: center;"><span class="edgeLabel"><p>promotes</p></span></div></foreignObject></g></g><g class="edgeLabel"><g class="label" data-id="L_Prom_Graf_0" transform="translate(0, 0)"><foreignObject width="0" height="0"><div xmlns="http://www.w3.org/1999/xhtml" class="labelBkg" style="display: table-cell; white-space: nowrap; line-height: 1.5; max-width: 200px; text-align: center;"><span class="edgeLabel"></span></div></foreignObject></g></g><g class="edgeLabel" transform="translate(131.8203125, 301.25)"><g class="label" data-id="L_Backend_Prom_0" transform="translate(-24.3203125, -9.75)"><foreignObject width="48.640625" height="19.5"><div xmlns="http://www.w3.org/1999/xhtml" class="labelBkg" style="display: table-cell; white-space: nowrap; line-height: 1.5; max-width: 200px; text-align: center;"><span class="edgeLabel"><p>metrics</p></span></div></foreignObject></g></g><g class="edgeLabel" transform="translate(301.34375, 301.25)"><g class="label" data-id="L_Backend_Jaeger_0" transform="translate(-20.1640625, -9.75)"><foreignObject width="40.328125" height="19.5"><div xmlns="http://www.w3.org/1999/xhtml" class="labelBkg" style="display: table-cell; white-space: nowrap; line-height: 1.5; max-width: 200px; text-align: center;"><span class="edgeLabel"><p>traces</p></span></div></foreignObject></g></g><g class="edgeLabel"><g class="label" data-id="L_Backend_ms_0" transform="translate(0, 0)"><foreignObject width="0" height="0"><div xmlns="http://www.w3.org/1999/xhtml" class="labelBkg" style="display: table-cell; white-space: nowrap; line-height: 1.5; max-width: 200px; text-align: center;"><span class="edgeLabel"></span></div></foreignObject></g></g><g class="edgeLabel"><g class="label" data-id="L_Artifacts_ms_0" transform="translate(0, 0)"><foreignObject width="0" height="0"><div xmlns="http://www.w3.org/1999/xhtml" class="labelBkg" style="display: table-cell; white-space: nowrap; line-height: 1.5; max-width: 200px; text-align: center;"><span class="edgeLabel"></span></div></foreignObject></g></g><g class="edgeLabel" transform="translate(970.4765625, 393.767147064209)"><g class="label" data-id="L_Training_ms_0" transform="translate(-20.421875, -9.75)"><foreignObject width="40.84375" height="19.5"><div xmlns="http://www.w3.org/1999/xhtml" class="labelBkg" style="display: table-cell; white-space: nowrap; line-height: 1.5; max-width: 200px; text-align: center;"><span class="edgeLabel"><p>reload</p></span></div></foreignObject></g></g></g><g class="nodes"><g class="root" transform="translate(772.59765625, 493.53429412841797)"><g class="clusters"><g class="cluster" id="mermaid-1785719082815-ms" data-look="classic"><rect style="" x="8" y="8" width="201.984375" height="517.5"></rect><g class="cluster-label" transform="translate(62.703125, 8)"><foreignObject width="92.578125" height="19.5"><div xmlns="http://www.w3.org/1999/xhtml" style="display: table-cell; white-space: nowrap; line-height: 1.5;"><span class="nodeLabel"><p>Model Servers</p></span></div></foreignObject></g></g></g><g class="edgePaths"></g><g class="edgeLabels"></g><g class="nodes"><g class="node default" id="mermaid-1785719082815-flowchart-Emb-13" data-look="classic" transform="translate(108.9921875, 67.75)"><rect class="basic label-container" style="" x="-63.4921875" y="-24.75" width="126.984375" height="49.5"></rect><g class="label" style="" transform="translate(-33.4921875, -9.75)"><rect></rect><foreignObject width="66.984375" height="19.5"><div xmlns="http://www.w3.org/1999/xhtml" style="display: table-cell; white-space: nowrap; line-height: 1.5; max-width: 200px; text-align: center;"><span class="nodeLabel"><p>Embedder</p></span></div></foreignObject></g></g><g class="node default" id="mermaid-1785719082815-flowchart-Sim-14" data-look="classic" transform="translate(108.9921875, 167.25)"><rect class="basic label-container" style="" x="-60.734375" y="-24.75" width="121.46875" height="49.5"></rect><g class="label" style="" transform="translate(-30.734375, -9.75)"><rect></rect><foreignObject width="61.46875" height="19.5"><div xmlns="http://www.w3.org/1999/xhtml" style="display: table-cell; white-space: nowrap; line-height: 1.5; max-width: 200px; text-align: center;"><span class="nodeLabel"><p>Similarity</p></span></div></foreignObject></g></g><g class="node default" id="mermaid-1785719082815-flowchart-ALS-15" data-look="classic" transform="translate(108.9921875, 266.75)"><rect class="basic label-container" style="" x="-42.1953125" y="-24.75" width="84.390625" height="49.5"></rect><g class="label" style="" transform="translate(-12.1953125, -9.75)"><rect></rect><foreignObject width="24.390625" height="19.5"><div xmlns="http://www.w3.org/1999/xhtml" style="display: table-cell; white-space: nowrap; line-height: 1.5; max-width: 200px; text-align: center;"><span class="nodeLabel"><p>ALS</p></span></div></foreignObject></g></g><g class="node default" id="mermaid-1785719082815-flowchart-Meta-16" data-look="classic" transform="translate(108.9921875, 366.25)"><rect class="basic label-container" style="" x="-60.78125" y="-24.75" width="121.5625" height="49.5"></rect><g class="label" style="" transform="translate(-30.78125, -9.75)"><rect></rect><foreignObject width="61.5625" height="19.5"><div xmlns="http://www.w3.org/1999/xhtml" style="display: table-cell; white-space: nowrap; line-height: 1.5; max-width: 200px; text-align: center;"><span class="nodeLabel"><p>Metadata</p></span></div></foreignObject></g></g><g class="node default" id="mermaid-1785719082815-flowchart-Sem-17" data-look="classic" transform="translate(108.9921875, 465.75)"><rect class="basic label-container" style="" x="-60.4921875" y="-24.75" width="120.984375" height="49.5"></rect><g class="label" style="" transform="translate(-30.4921875, -9.75)"><rect></rect><foreignObject width="60.984375" height="19.5"><div xmlns="http://www.w3.org/1999/xhtml" style="display: table-cell; white-space: nowrap; line-height: 1.5; max-width: 200px; text-align: center;"><span class="nodeLabel"><p>Semantic</p></span></div></foreignObject></g></g></g></g><g class="node default" id="mermaid-1785719082815-flowchart-Browser-0" data-look="classic" transform="translate(530.90625, 25.25)"><g class="basic label-container outer-path"><path d="M-20.90625 -17.25 C-11.437908437873547 -17.25, -1.9695668757470948 -17.25, 20.90625 -17.25 C20.90625 -17.25, 20.90625 -17.25, 20.90625 -17.25 C21.289437439730555 -17.237711924636944, 21.672624879461114 -17.22542384927389, 22.011461294667296 -17.2145580249433 C22.256659251116922 -17.19090407297829, 22.501857207566548 -17.167250121013286, 23.112131039057726 -17.108377738450997 C23.54165825950756 -17.03893510848201, 23.971185479957395 -16.969492478513025, 24.20373634509867 -16.93189545809588 C24.427334013544602 -16.880860749384244, 24.65093168199054 -16.829826040672604, 25.281791572438998 -16.685836387423258 C25.49954028885861 -16.621209711376252, 25.71728900527823 -16.556583035329247, 26.341866760907457 -16.371211635934035 C26.661097282579057 -16.25373185302429, 26.980327804250656 -16.13625207011455, 27.379605834169205 -15.989314064218876 C27.63312134710832 -15.877090266911225, 27.88663686004744 -15.764866469603573, 28.390744499777878 -15.54171297131673 C28.694935222926365 -15.383016865893621, 28.99912594607485 -15.224320760470512, 29.371127772067922 -15.030247646128469 C29.614273993887174 -14.882850977575837, 29.857420215706423 -14.735454309023202, 30.31672704588196 -14.457019809384253 C30.65054266627833 -14.224164483241049, 30.984358286674702 -13.991309157097843, 31.223656650973474 -13.824384977222252 C31.40647088434921 -13.678595490996164, 31.589285117724945 -13.532806004770078, 32.088189819059345 -13.13494278186757 C32.386749743864435 -12.86379855762232, 32.685309668669525 -12.592654333377073, 32.906773997910136 -12.391526289185801 C33.12406277067484 -12.167157791566233, 33.341351543439536 -11.942789293946664, 33.67604544954919 -11.597190357007719 C33.949139729603765 -11.276398276150868, 34.22223400965834 -10.955606195294017, 34.39284307257351 -10.755199082063154 C34.59658925289813 -10.482197762087045, 34.80033543322275 -10.209196442110935, 35.05422139179748 -9.86901238710743 C35.22970579096313 -9.59942122582982, 35.40519019012877 -9.329830064552212, 35.65746266184222 -8.94227180335656 C35.844443664089304 -8.610268099987259, 36.0314246663364 -8.278264396617958, 36.200088034934254 -7.978785506654408 C36.39098800372723 -7.5823776368507945, 36.58188797252021 -7.185969767047181, 36.67986774702276 -6.982512668861298 C36.786245335155016 -6.719757969503885, 36.89262292328726 -6.457003270146473, 37.094830280358366 -5.957547188767565 C37.21900415348478 -5.5835552673307145, 37.34317802661119 -5.209563345893864, 37.443270464882396 -4.908100869385314 C37.52208930767162 -4.607530461527462, 37.60090815046084 -4.306960053669611, 37.72375648513646 -3.838486110746425 C37.77487097314955 -3.576024017850119, 37.825985461162624 -3.3135619249538135, 37.93513576389927 -2.753098189325798 C37.96844357227516 -2.4947694049330327, 38.001751380651065 -2.236440620540267, 38.076539698373665 -1.6563971969075135 C38.09693232266379 -1.3387656129587564, 38.11732494695392 -1.0211340290099993, 38.14738722946187 -0.5528897131110516 C38.14738722946187 -0.2048548721613736, 38.14738722946187 0.1431799687883044, 38.14738722946187 0.5528897131110474 C38.12957205369495 0.8303754558318243, 38.11175687792803 1.1078611985526012, 38.076539698373665 1.6563971969075018 C38.021141964363785 2.086051082368215, 37.96574423035391 2.5157049678289276, 37.93513576389927 2.753098189325786 C37.8658135919045 3.1090528912727105, 37.79649141990972 3.465007593219635, 37.72375648513646 3.8384861107464214 C37.6465360179765 4.13296121958951, 37.56931555081655 4.427436328432599, 37.443270464882396 4.908100869385303 C37.35826885524814 5.1641121744363785, 37.27326724561389 5.420123479487454, 37.094830280358366 5.9575471887675535 C36.98339998009138 6.232782184785316, 36.87196967982439 6.50801718080308, 36.67986774702277 6.982512668861292 C36.56135119180209 7.228614831625073, 36.442834636581416 7.474716994388855, 36.200088034934254 7.978785506654404 C36.067053364363474 8.215002035473985, 35.934018693792694 8.451218564293567, 35.657462661842224 8.942271803356554 C35.52330846986774 9.14836866767394, 35.38915427789326 9.354465531991327, 35.05422139179749 9.869012387107421 C34.8356223247766 10.16191522213072, 34.61702325775571 10.45481805715402, 34.39284307257351 10.75519908206315 C34.21756215057264 10.961094026812386, 34.04228122857176 11.166988971561624, 33.6760454495492 11.597190357007708 C33.490388066356225 11.78889684790909, 33.30473068316325 11.980603338810472, 32.90677399791014 12.391526289185798 C32.67416885392231 12.602772126560687, 32.441563709934485 12.814017963935575, 32.088189819059366 13.13494278186756 C31.911679303661668 13.27570522075514, 31.73516878826397 13.416467659642723, 31.22365665097348 13.82438497722225 C30.952338343712466 14.013644883187311, 30.68102003645145 14.202904789152372, 30.316727045881972 14.457019809384246 C30.093687876932304 14.59222746432518, 29.870648707982635 14.727435119266115, 29.37112777206793 15.030247646128467 C29.032686511620213 15.206812234922069, 28.694245251172493 15.383376823715668, 28.39074449977788 15.541712971316729 C28.082437546426252 15.678191313964668, 27.774130593074624 15.814669656612608, 27.37960583416921 15.989314064218874 C27.137800940877867 16.07830050017002, 26.89599604758652 16.167286936121165, 26.341866760907468 16.37121163593403 C26.04467053363545 16.459417916173535, 25.74747430636343 16.54762419641304, 25.28179157243902 16.685836387423254 C24.942865979179604 16.763193942388526, 24.603940385920193 16.840551497353797, 24.203736345098676 16.931895458095877 C23.837645060643567 16.991082257886266, 23.471553776188458 17.050269057676655, 23.11213103905774 17.108377738450994 C22.82324470715992 17.13624625545253, 22.534358375262094 17.164114772454067, 22.011461294667296 17.2145580249433 C21.675411180503204 17.225334498022676, 21.339361066339116 17.236110971102054, 20.906250000000004 17.25 C20.906250000000004 17.25, 20.906250000000004 17.25, 20.90625 17.25 C10.262819342302821 17.25, -0.3806113153943578 17.25, -20.906249999999996 17.25 C-21.26230058517159 17.23858215074397, -21.61835117034319 17.227164301487935, -22.011461294667292 17.2145580249433 C-22.41841151941636 17.17530002619101, -22.825361744165427 17.13604202743872, -23.112131039057733 17.108377738450994 C-23.37606484536057 17.065706967485188, -23.639998651663404 17.023036196519385, -24.203736345098672 16.931895458095877 C-24.565392062208897 16.849349900689578, -24.927047779319125 16.76680434328328, -25.281791572438998 16.685836387423258 C-25.508668757171435 16.618500429897317, -25.73554594190387 16.551164472371376, -26.341866760907447 16.37121163593404 C-26.720515383789767 16.231865442523844, -27.099164006672087 16.09251924911365, -27.379605834169205 15.989314064218876 C-27.745154063203273 15.827496706828434, -28.110702292237338 15.665679349437994, -28.390744499777874 15.541712971316732 C-28.78062900284173 15.338310475801261, -29.17051350590559 15.13490798028579, -29.371127772067922 15.03024764612847 C-29.604380437122234 14.888848509827737, -29.837633102176547 14.747449373527001, -30.316727045881954 14.457019809384258 C-30.642756665440242 14.229595660375155, -30.968786284998533 14.002171511366052, -31.223656650973474 13.824384977222254 C-31.4928430434371 13.609715992583254, -31.762029435900732 13.395047007944255, -32.088189819059345 13.134942781867572 C-32.33840269109938 12.907706071750624, -32.58861556313943 12.680469361633676, -32.906773997910136 12.391526289185808 C-33.20378803362666 12.084834912002659, -33.50080206934319 11.778143534819508, -33.67604544954919 11.597190357007715 C-33.90200520322415 11.331765172866891, -34.127964956899106 11.066339988726067, -34.39284307257351 10.755199082063156 C-34.63927486912075 10.425002925088371, -34.88570666566799 10.094806768113589, -35.05422139179748 9.869012387107432 C-35.186196896099396 9.666262572114665, -35.318172400401316 9.463512757121897, -35.65746266184222 8.942271803356567 C-35.85273262478038 8.595550210931977, -36.04800258771854 8.248828618507387, -36.200088034934254 7.97878550665441 C-36.38070366241826 7.603733291628521, -36.56131928990227 7.228681076602633, -36.67986774702276 6.9825126688612995 C-36.781976260145456 6.73030266731444, -36.88408477326816 6.47809266576758, -37.094830280358366 5.957547188767567 C-37.177306667549175 5.7091414513765955, -37.25978305473998 5.460735713985625, -37.443270464882396 4.90810086938531 C-37.50040389688315 4.690226331380369, -37.5575373288839 4.472351793375429, -37.723756485136455 3.8384861107464276 C-37.785928792114674 3.5192444545350106, -37.848101099092894 3.2000027983235935, -37.93513576389927 2.7530981893258 C-37.97465803855529 2.4465712316495796, -38.014180313211305 2.1400442739733596, -38.076539698373665 1.6563971969075233 C-38.09963253104609 1.2967076878355477, -38.12272536371851 0.9370181787635723, -38.14738722946187 0.5528897131110537 C-38.14738722946187 0.22586214415010047, -38.14738722946187 -0.10116542481085278, -38.14738722946187 -0.5528897131110454 C-38.13032267833432 -0.8186838711803082, -38.11325812720678 -1.084478029249571, -38.076539698373665 -1.6563971969074995 C-38.035822100206474 -1.972194847693058, -37.99510450203928 -2.2879924984786166, -37.93513576389927 -2.753098189325792 C-37.87244179930838 -3.0750184471258954, -37.80974783471749 -3.3969387049259985, -37.72375648513646 -3.8384861107464197 C-37.65566381336192 -4.098152979773385, -37.587571141587375 -4.35781984880035, -37.4432704648824 -4.908100869385301 C-37.3377900659191 -5.225791025043496, -37.2323096669558 -5.543481180701691, -37.09483028035837 -5.957547188767545 C-36.94511736366606 -6.327340987499905, -36.795404446973734 -6.697134786232266, -36.67986774702277 -6.982512668861291 C-36.51005298765591 -7.335136650140346, -36.34023822828906 -7.687760631419402, -36.200088034934254 -7.978785506654402 C-36.06312949049037 -8.221969270871002, -35.92617094604648 -8.4651530350876, -35.65746266184222 -8.942271803356562 C-35.49319205952246 -9.194635561352818, -35.328921457202696 -9.446999319349075, -35.05422139179749 -9.869012387107427 C-34.78971162589544 -10.223431376080766, -34.525201859993395 -10.577850365054108, -34.39284307257352 -10.75519908206315 C-34.14976352083381 -11.040734155154938, -33.906683969094104 -11.326269228246728, -33.6760454495492 -11.597190357007708 C-33.42026776473496 -11.86130181631688, -33.16449007992071 -12.12541327562605, -32.90677399791015 -12.39152628918579 C-32.71266664944854 -12.567809447259615, -32.51855930098694 -12.74409260533344, -32.088189819059366 -13.134942781867558 C-31.7562964332382 -13.399618925006017, -31.424403047417037 -13.664295068144476, -31.22365665097348 -13.824384977222248 C-31.031083523156447 -13.958715654831066, -30.838510395339416 -14.093046332439883, -30.316727045881976 -14.457019809384244 C-29.951271867262122 -14.678560886316616, -29.585816688642268 -14.900101963248988, -29.37112777206793 -15.030247646128466 C-29.152410237813505 -15.144352443653732, -28.933692703559082 -15.258457241178997, -28.39074449977788 -15.541712971316729 C-28.0398985297997 -15.697022074750148, -27.68905255982152 -15.852331178183567, -27.37960583416921 -15.98931406421887 C-26.991208291755548 -16.132247950134623, -26.602810749341888 -16.27518183605038, -26.34186676090747 -16.37121163593403 C-25.955361718441225 -16.485924303731643, -25.568856675974978 -16.600636971529255, -25.28179157243902 -16.68583638742325 C-25.020358086126716 -16.745506874661103, -24.758924599814414 -16.805177361898952, -24.20373634509868 -16.931895458095877 C-23.881700690261646 -16.983959685346125, -23.55966503542461 -17.036023912596374, -23.11213103905774 -17.108377738450994 C-22.874065303635724 -17.13134365363122, -22.635999568213713 -17.154309568811446, -22.0114612946673 -17.2145580249433 C-21.690480843511374 -17.224851243261323, -21.36950039235545 -17.23514446157935, -20.906250000000004 -17.25 C-20.906250000000004 -17.25, -20.90625 -17.25, -20.90625 -17.25" stroke="none" stroke-width="0" fill="#eee" style=""></path><path d="M-20.90625 -17.25 C-7.000656509507397 -17.25, 6.904936980985205 -17.25, 20.90625 -17.25 M-20.90625 -17.25 C-9.960456880866818 -17.25, 0.9853362382663633 -17.25, 20.90625 -17.25 M20.90625 -17.25 C20.90625 -17.25, 20.90625 -17.25, 20.90625 -17.25 M20.90625 -17.25 C20.90625 -17.25, 20.90625 -17.25, 20.90625 -17.25 M20.90625 -17.25 C21.200229333251347 -17.24057265497869, 21.49420866650269 -17.231145309957377, 22.011461294667296 -17.2145580249433 M20.90625 -17.25 C21.306026981754332 -17.23717993031383, 21.705803963508664 -17.224359860627654, 22.011461294667296 -17.2145580249433 M22.011461294667296 -17.2145580249433 C22.39943939064703 -17.177130244636064, 22.78741748662676 -17.139702464328828, 23.112131039057726 -17.108377738450997 M22.011461294667296 -17.2145580249433 C22.31684406732725 -17.185098116141315, 22.622226839987206 -17.155638207339326, 23.112131039057726 -17.108377738450997 M23.112131039057726 -17.108377738450997 C23.430221261626873 -17.056951378092535, 23.748311484196016 -17.005525017734076, 24.20373634509867 -16.93189545809588 M23.112131039057726 -17.108377738450997 C23.414307888439303 -17.05952412885945, 23.716484737820885 -17.0106705192679, 24.20373634509867 -16.93189545809588 M24.20373634509867 -16.93189545809588 C24.60870272386983 -16.839464524793954, 25.01366910264099 -16.747033591492023, 25.281791572438998 -16.685836387423258 M24.20373634509867 -16.93189545809588 C24.583087575063843 -16.84531101535445, 24.962438805029013 -16.75872657261302, 25.281791572438998 -16.685836387423258 M25.281791572438998 -16.685836387423258 C25.507308647644827 -16.618904103265454, 25.732825722850656 -16.551971819107646, 26.341866760907457 -16.371211635934035 M25.281791572438998 -16.685836387423258 C25.60755804193771 -16.589150609259132, 25.93332451143642 -16.49246483109501, 26.341866760907457 -16.371211635934035 M26.341866760907457 -16.371211635934035 C26.55293989163646 -16.29353477268713, 26.76401302236546 -16.215857909440224, 27.379605834169205 -15.989314064218876 M26.341866760907457 -16.371211635934035 C26.707680843550488 -16.236588671973088, 27.07349492619352 -16.101965708012145, 27.379605834169205 -15.989314064218876 M27.379605834169205 -15.989314064218876 C27.682434364394226 -15.855260856977438, 27.985262894619247 -15.721207649736, 28.390744499777878 -15.54171297131673 M27.379605834169205 -15.989314064218876 C27.733308789302278 -15.832740258206838, 28.08701174443535 -15.676166452194803, 28.390744499777878 -15.54171297131673 M28.390744499777878 -15.54171297131673 C28.62155420488653 -15.421299696002217, 28.852363909995184 -15.300886420687705, 29.371127772067922 -15.030247646128469 M28.390744499777878 -15.54171297131673 C28.58985831227967 -15.437835422873029, 28.788972124781463 -15.333957874429327, 29.371127772067922 -15.030247646128469 M29.371127772067922 -15.030247646128469 C29.67010822466748 -14.849003938758452, 29.96908867726704 -14.667760231388437, 30.31672704588196 -14.457019809384253 M29.371127772067922 -15.030247646128469 C29.588331675383845 -14.89857736350654, 29.805535578699768 -14.766907080884609, 30.31672704588196 -14.457019809384253 M30.31672704588196 -14.457019809384253 C30.578315246046493 -14.27454720492015, 30.839903446211025 -14.092074600456048, 31.223656650973474 -13.824384977222252 M30.31672704588196 -14.457019809384253 C30.613845635081354 -14.249762743615182, 30.910964224280747 -14.042505677846112, 31.223656650973474 -13.824384977222252 M31.223656650973474 -13.824384977222252 C31.546604095977795 -13.566842983823742, 31.869551540982116 -13.309300990425232, 32.088189819059345 -13.13494278186757 M31.223656650973474 -13.824384977222252 C31.472248087202 -13.626139922125946, 31.720839523430524 -13.42789486702964, 32.088189819059345 -13.13494278186757 M32.088189819059345 -13.13494278186757 C32.34298982091843 -12.903540161817766, 32.59778982277752 -12.672137541767963, 32.906773997910136 -12.391526289185801 M32.088189819059345 -13.13494278186757 C32.299199144098466 -12.943309695867843, 32.51020846913759 -12.751676609868115, 32.906773997910136 -12.391526289185801 M32.906773997910136 -12.391526289185801 C33.0655279190033 -12.22759983171779, 33.22428184009647 -12.063673374249777, 33.67604544954919 -11.597190357007719 M32.906773997910136 -12.391526289185801 C33.092378921322606 -12.199873967314817, 33.27798384473508 -12.008221645443832, 33.67604544954919 -11.597190357007719 M33.67604544954919 -11.597190357007719 C33.8765430453312 -11.361674472365774, 34.077040641113214 -11.126158587723829, 34.39284307257351 -10.755199082063154 M33.67604544954919 -11.597190357007719 C33.91111697456308 -11.321061967777707, 34.146188499576965 -11.044933578547695, 34.39284307257351 -10.755199082063154 M34.39284307257351 -10.755199082063154 C34.642727125078565 -10.420377216611888, 34.89261117758361 -10.085555351160622, 35.05422139179748 -9.86901238710743 M34.39284307257351 -10.755199082063154 C34.595859311049885 -10.48317581766462, 34.79887554952626 -10.211152553266086, 35.05422139179748 -9.86901238710743 M35.05422139179748 -9.86901238710743 C35.19894347136695 -9.646680409568985, 35.34366555093642 -9.42434843203054, 35.65746266184222 -8.94227180335656 M35.05422139179748 -9.86901238710743 C35.27929820823026 -9.523233955478851, 35.50437502466304 -9.177455523850272, 35.65746266184222 -8.94227180335656 M35.65746266184222 -8.94227180335656 C35.84720056461507 -8.605372943937311, 36.03693846738793 -8.268474084518063, 36.200088034934254 -7.978785506654408 M35.65746266184222 -8.94227180335656 C35.77573078248411 -8.732274779211036, 35.893998903126004 -8.522277755065511, 36.200088034934254 -7.978785506654408 M36.200088034934254 -7.978785506654408 C36.36394353670993 -7.638536051271116, 36.52779903848561 -7.298286595887823, 36.67986774702276 -6.982512668861298 M36.200088034934254 -7.978785506654408 C36.36655634958674 -7.633110489427182, 36.53302466423923 -7.287435472199954, 36.67986774702276 -6.982512668861298 M36.67986774702276 -6.982512668861298 C36.82819026094732 -6.616153191846908, 36.976512774871885 -6.249793714832518, 37.094830280358366 -5.957547188767565 M36.67986774702276 -6.982512668861298 C36.841148679973436 -6.584145646318426, 37.00242961292411 -6.185778623775555, 37.094830280358366 -5.957547188767565 M37.094830280358366 -5.957547188767565 C37.172500920994416 -5.723615594307781, 37.250171561630474 -5.489683999847997, 37.443270464882396 -4.908100869385314 M37.094830280358366 -5.957547188767565 C37.16753683186247 -5.738566639853009, 37.24024338336658 -5.5195860909384535, 37.443270464882396 -4.908100869385314 M37.443270464882396 -4.908100869385314 C37.554647945862136 -4.48337026310397, 37.66602542684188 -4.058639656822625, 37.72375648513646 -3.838486110746425 M37.443270464882396 -4.908100869385314 C37.518064383195 -4.622879242970117, 37.5928583015076 -4.33765761655492, 37.72375648513646 -3.838486110746425 M37.72375648513646 -3.838486110746425 C37.77890412865968 -3.5553146167132703, 37.8340517721829 -3.272143122680115, 37.93513576389927 -2.753098189325798 M37.72375648513646 -3.838486110746425 C37.77865473441394 -3.5565952034556663, 37.83355298369142 -3.2747042961649075, 37.93513576389927 -2.753098189325798 M37.93513576389927 -2.753098189325798 C37.969232713423054 -2.488648982023581, 38.00332966294683 -2.224199774721364, 38.076539698373665 -1.6563971969075135 M37.93513576389927 -2.753098189325798 C37.98060140133002 -2.4004756836184806, 38.02606703876077 -2.0478531779111626, 38.076539698373665 -1.6563971969075135 M38.076539698373665 -1.6563971969075135 C38.099468023500364 -1.299270025648321, 38.122396348627056 -0.9421428543891283, 38.14738722946187 -0.5528897131110516 M38.076539698373665 -1.6563971969075135 C38.093969586249905 -1.3849126240828038, 38.11139947412615 -1.113428051258094, 38.14738722946187 -0.5528897131110516 M38.14738722946187 -0.5528897131110516 C38.14738722946187 -0.1395376054533342, 38.14738722946187 0.2738145022043832, 38.14738722946187 0.5528897131110474 M38.14738722946187 -0.5528897131110516 C38.14738722946187 -0.1843663216750014, 38.14738722946187 0.18415706976104884, 38.14738722946187 0.5528897131110474 M38.14738722946187 0.5528897131110474 C38.12317212882043 0.930059451678849, 38.098957028178994 1.3072291902466504, 38.076539698373665 1.6563971969075018 M38.14738722946187 0.5528897131110474 C38.12011666602528 0.9776507510384956, 38.09284610258869 1.402411788965944, 38.076539698373665 1.6563971969075018 M38.076539698373665 1.6563971969075018 C38.039577942164385 1.9430652791423482, 38.00261618595511 2.2297333613771944, 37.93513576389927 2.753098189325786 M38.076539698373665 1.6563971969075018 C38.034697972267 1.9809133620074346, 37.992856246160336 2.3054295271073677, 37.93513576389927 2.753098189325786 M37.93513576389927 2.753098189325786 C37.852018610135616 3.1798872070854705, 37.768901456371964 3.6066762248451543, 37.72375648513646 3.8384861107464214 M37.93513576389927 2.753098189325786 C37.881129971821764 3.0304065175155768, 37.82712417974426 3.307714845705367, 37.72375648513646 3.8384861107464214 M37.72375648513646 3.8384861107464214 C37.61544693159356 4.2515173800629515, 37.50713737805065 4.6645486493794825, 37.443270464882396 4.908100869385303 M37.72375648513646 3.8384861107464214 C37.63355309714703 4.182470723545765, 37.5433497091576 4.5264553363451085, 37.443270464882396 4.908100869385303 M37.443270464882396 4.908100869385303 C37.341640130836346 5.214195242937276, 37.2400097967903 5.520289616489248, 37.094830280358366 5.9575471887675535 M37.443270464882396 4.908100869385303 C37.35085563348405 5.186439617253326, 37.258440802085715 5.464778365121348, 37.094830280358366 5.9575471887675535 M37.094830280358366 5.9575471887675535 C36.953422104463954 6.306828117167843, 36.81201392856955 6.656109045568131, 36.67986774702277 6.982512668861292 M37.094830280358366 5.9575471887675535 C37.0108961054149 6.164866223634796, 36.926961930471435 6.3721852585020375, 36.67986774702277 6.982512668861292 M36.67986774702277 6.982512668861292 C36.529423770715205 7.294912804649374, 36.378979794407634 7.607312940437456, 36.200088034934254 7.978785506654404 M36.67986774702277 6.982512668861292 C36.5128402079339 7.329348927596151, 36.34581266884503 7.67618518633101, 36.200088034934254 7.978785506654404 M36.200088034934254 7.978785506654404 C36.051885326015054 8.24193442349204, 35.90368261709585 8.505083340329678, 35.657462661842224 8.942271803356554 M36.200088034934254 7.978785506654404 C36.03850822258302 8.265686825214226, 35.876928410231784 8.552588143774049, 35.657462661842224 8.942271803356554 M35.657462661842224 8.942271803356554 C35.46684283461633 9.235115046566214, 35.276223007390435 9.527958289775876, 35.05422139179749 9.869012387107421 M35.657462661842224 8.942271803356554 C35.49326399154523 9.194525054449395, 35.32906532124822 9.446778305542235, 35.05422139179749 9.869012387107421 M35.05422139179749 9.869012387107421 C34.82642376431043 10.1742404551493, 34.598626136823356 10.479468523191178, 34.39284307257351 10.75519908206315 M35.05422139179749 9.869012387107421 C34.80716711296627 10.200042613633439, 34.56011283413505 10.531072840159457, 34.39284307257351 10.75519908206315 M34.39284307257351 10.75519908206315 C34.236543321362305 10.938797663543628, 34.0802435701511 11.122396245024106, 33.6760454495492 11.597190357007708 M34.39284307257351 10.75519908206315 C34.22743454938802 10.94949734540843, 34.06202602620253 11.143795608753711, 33.6760454495492 11.597190357007708 M33.6760454495492 11.597190357007708 C33.45446518715838 11.825990170004104, 33.23288492476755 12.054789983000498, 32.90677399791014 12.391526289185798 M33.6760454495492 11.597190357007708 C33.48803654140708 11.791324990482876, 33.30002763326495 11.985459623958045, 32.90677399791014 12.391526289185798 M32.90677399791014 12.391526289185798 C32.69719067126794 12.5818643211713, 32.48760734462573 12.772202353156803, 32.088189819059366 13.13494278186756 M32.90677399791014 12.391526289185798 C32.72618016803783 12.555536827224937, 32.54558633816551 12.719547365264077, 32.088189819059366 13.13494278186756 M32.088189819059366 13.13494278186756 C31.762373647290676 13.394772508520626, 31.436557475521987 13.654602235173694, 31.22365665097348 13.82438497722225 M32.088189819059366 13.13494278186756 C31.892819224455355 13.29074563203439, 31.697448629851348 13.44654848220122, 31.22365665097348 13.82438497722225 M31.22365665097348 13.82438497722225 C30.968574452371477 14.0023192766366, 30.713492253769473 14.180253576050951, 30.316727045881972 14.457019809384246 M31.22365665097348 13.82438497722225 C31.024988916848688 13.962966988360106, 30.826321182723895 14.101548999497963, 30.316727045881972 14.457019809384246 M30.316727045881972 14.457019809384246 C30.040170596298186 14.624669954348033, 29.7636141467144 14.792320099311821, 29.37112777206793 15.030247646128467 M30.316727045881972 14.457019809384246 C30.091612307845363 14.593485686503081, 29.866497569808754 14.729951563621917, 29.37112777206793 15.030247646128467 M29.37112777206793 15.030247646128467 C29.11835454581543 15.162119276355417, 28.86558131956293 15.293990906582367, 28.39074449977788 15.541712971316729 M29.37112777206793 15.030247646128467 C29.169465683988335 15.135454628308858, 28.967803595908745 15.24066161048925, 28.39074449977788 15.541712971316729 M28.39074449977788 15.541712971316729 C28.077811350781854 15.680239193545225, 27.764878201785827 15.81876541577372, 27.37960583416921 15.989314064218874 M28.39074449977788 15.541712971316729 C28.172414985664854 15.63836097069964, 27.954085471551828 15.735008970082554, 27.37960583416921 15.989314064218874 M27.37960583416921 15.989314064218874 C27.00032867794862 16.12889156370765, 26.62105152172803 16.268469063196427, 26.341866760907468 16.37121163593403 M27.37960583416921 15.989314064218874 C27.06050769283578 16.10674512994046, 26.74140955150235 16.224176195662046, 26.341866760907468 16.37121163593403 M26.341866760907468 16.37121163593403 C25.98324141202475 16.477649757019552, 25.624616063142035 16.584087878105073, 25.28179157243902 16.685836387423254 M26.341866760907468 16.37121163593403 C25.924110864439946 16.495199393160142, 25.506354967972428 16.619187150386256, 25.28179157243902 16.685836387423254 M25.28179157243902 16.685836387423254 C24.85067878507205 16.784235067865914, 24.419565997705078 16.88263374830857, 24.203736345098676 16.931895458095877 M25.28179157243902 16.685836387423254 C24.947572729963248 16.76211965723658, 24.61335388748748 16.838402927049902, 24.203736345098676 16.931895458095877 M24.203736345098676 16.931895458095877 C23.84169934136925 16.990426793219953, 23.479662337639823 17.048958128344033, 23.11213103905774 17.108377738450994 M24.203736345098676 16.931895458095877 C23.923960274989845 16.977127483415245, 23.644184204881014 17.022359508734613, 23.11213103905774 17.108377738450994 M23.11213103905774 17.108377738450994 C22.67688556808854 17.15036534557613, 22.241640097119344 17.192352952701263, 22.011461294667296 17.2145580249433 M23.11213103905774 17.108377738450994 C22.67976389170062 17.15008767715896, 22.2473967443435 17.191797615866932, 22.011461294667296 17.2145580249433 M22.011461294667296 17.2145580249433 C21.730799282354326 17.223558309402712, 21.450137270041353 17.232558593862123, 20.906250000000004 17.25 M22.011461294667296 17.2145580249433 C21.78407040942772 17.221850008043425, 21.55667952418814 17.229141991143553, 20.906250000000004 17.25 M20.906250000000004 17.25 C20.906250000000004 17.25, 20.90625 17.25, 20.90625 17.25 M20.906250000000004 17.25 C20.906250000000004 17.25, 20.90625 17.25, 20.90625 17.25 M20.90625 17.25 C10.492884874056333 17.25, 0.07951974811266638 17.25, -20.906249999999996 17.25 M20.90625 17.25 C10.847352148563147 17.25, 0.7884542971262931 17.25, -20.906249999999996 17.25 M-20.906249999999996 17.25 C-21.24970327003806 17.238986122121116, -21.593156540076123 17.227972244242228, -22.011461294667292 17.2145580249433 M-20.906249999999996 17.25 C-21.19191283913841 17.240839348757817, -21.477575678276825 17.231678697515633, -22.011461294667292 17.2145580249433 M-22.011461294667292 17.2145580249433 C-22.29762873834369 17.186951795818544, -22.583796182020087 17.159345566693787, -23.112131039057733 17.108377738450994 M-22.011461294667292 17.2145580249433 C-22.388503423340744 17.178185224249678, -22.765545552014196 17.14181242355605, -23.112131039057733 17.108377738450994 M-23.112131039057733 17.108377738450994 C-23.3816620144646 17.064802060591145, -23.65119298987146 17.021226382731296, -24.203736345098672 16.931895458095877 M-23.112131039057733 17.108377738450994 C-23.441979975945657 17.055050320351665, -23.77182891283358 17.001722902252336, -24.203736345098672 16.931895458095877 M-24.203736345098672 16.931895458095877 C-24.56082364246711 16.850392612683915, -24.917910939835544 16.768889767271954, -25.281791572438998 16.685836387423258 M-24.203736345098672 16.931895458095877 C-24.50526654036206 16.86307315869542, -24.80679673562545 16.794250859294966, -25.281791572438998 16.685836387423258 M-25.281791572438998 16.685836387423258 C-25.671280466073014 16.570238128261607, -26.060769359707027 16.454639869099953, -26.341866760907447 16.37121163593404 M-25.281791572438998 16.685836387423258 C-25.5455241471339 16.607561943614346, -25.809256721828802 16.529287499805434, -26.341866760907447 16.37121163593404 M-26.341866760907447 16.37121163593404 C-26.57750654474386 16.284494017251955, -26.81314632858027 16.19777639856987, -27.379605834169205 15.989314064218876 M-26.341866760907447 16.37121163593404 C-26.692991655751445 16.241994428868498, -27.044116550595447 16.11277722180296, -27.379605834169205 15.989314064218876 M-27.379605834169205 15.989314064218876 C-27.705968387962724 15.84484304285567, -28.03233094175624 15.700372021492464, -28.390744499777874 15.541712971316732 M-27.379605834169205 15.989314064218876 C-27.679968394482646 15.856352468706897, -27.980330954796088 15.723390873194917, -28.390744499777874 15.541712971316732 M-28.390744499777874 15.541712971316732 C-28.675440043047526 15.393187488749154, -28.96013558631718 15.244662006181574, -29.371127772067922 15.03024764612847 M-28.390744499777874 15.541712971316732 C-28.77659442866516 15.34041531056491, -29.162444357552445 15.139117649813087, -29.371127772067922 15.03024764612847 M-29.371127772067922 15.03024764612847 C-29.632821814794365 14.871607179542805, -29.894515857520805 14.712966712957137, -30.316727045881954 14.457019809384258 M-29.371127772067922 15.03024764612847 C-29.704080169679344 14.828409946050954, -30.037032567290765 14.626572245973438, -30.316727045881954 14.457019809384258 M-30.316727045881954 14.457019809384258 C-30.549718609198706 14.29449498085671, -30.78271017251546 14.13197015232916, -31.223656650973474 13.824384977222254 M-30.316727045881954 14.457019809384258 C-30.653006183385035 14.22244604035135, -30.989285320888115 13.987872271318443, -31.223656650973474 13.824384977222254 M-31.223656650973474 13.824384977222254 C-31.556194254871006 13.559195087311254, -31.888731858768537 13.294005197400255, -32.088189819059345 13.134942781867572 M-31.223656650973474 13.824384977222254 C-31.447952544909448 13.645514970572723, -31.672248438845426 13.466644963923192, -32.088189819059345 13.134942781867572 M-32.088189819059345 13.134942781867572 C-32.36149271083242 12.886736326757521, -32.6347956026055 12.638529871647473, -32.906773997910136 12.391526289185808 M-32.088189819059345 13.134942781867572 C-32.3334669097243 12.912188617801855, -32.57874400038926 12.689434453736137, -32.906773997910136 12.391526289185808 M-32.906773997910136 12.391526289185808 C-33.082879315628475 12.209683090126143, -33.25898463334682 12.02783989106648, -33.67604544954919 11.597190357007715 M-32.906773997910136 12.391526289185808 C-33.1253836687665 12.165793855838844, -33.34399333962286 11.940061422491878, -33.67604544954919 11.597190357007715 M-33.67604544954919 11.597190357007715 C-33.82390390263492 11.423507404628904, -33.971762355720635 11.249824452250094, -34.39284307257351 10.755199082063156 M-33.67604544954919 11.597190357007715 C-33.85174313007103 11.390805863985529, -34.027440810592864 11.184421370963342, -34.39284307257351 10.755199082063156 M-34.39284307257351 10.755199082063156 C-34.559184317197186 10.532316968266569, -34.72552556182085 10.309434854469982, -35.05422139179748 9.869012387107432 M-34.39284307257351 10.755199082063156 C-34.565064519076316 10.524438033445945, -34.73728596557912 10.293676984828734, -35.05422139179748 9.869012387107432 M-35.05422139179748 9.869012387107432 C-35.253103028530724 9.563476785888001, -35.451984665263964 9.25794118466857, -35.65746266184222 8.942271803356567 M-35.05422139179748 9.869012387107432 C-35.26286282398047 9.54848311920516, -35.47150425616345 9.227953851302889, -35.65746266184222 8.942271803356567 M-35.65746266184222 8.942271803356567 C-35.79605333720351 8.69619002542494, -35.934644012564796 8.450108247493311, -36.200088034934254 7.97878550665441 M-35.65746266184222 8.942271803356567 C-35.77863737187354 8.727113835426014, -35.89981208190487 8.51195586749546, -36.200088034934254 7.97878550665441 M-36.200088034934254 7.97878550665441 C-36.32101882621825 7.727670131048761, -36.44194961750225 7.476554755443112, -36.67986774702276 6.9825126688612995 M-36.200088034934254 7.97878550665441 C-36.29710663375324 7.777324310341327, -36.394125232572215 7.575863114028245, -36.67986774702276 6.9825126688612995 M-36.67986774702276 6.9825126688612995 C-36.83558630016148 6.597884831995255, -36.9913048533002 6.213256995129212, -37.094830280358366 5.957547188767567 M-36.67986774702276 6.9825126688612995 C-36.79288269228103 6.703363569078043, -36.90589763753931 6.424214469294786, -37.094830280358366 5.957547188767567 M-37.094830280358366 5.957547188767567 C-37.21421161543875 5.597989628338108, -37.33359295051914 5.238432067908649, -37.443270464882396 4.90810086938531 M-37.094830280358366 5.957547188767567 C-37.228001025122644 5.556458123414289, -37.36117176988692 5.1553690580610105, -37.443270464882396 4.90810086938531 M-37.443270464882396 4.90810086938531 C-37.542837753296325 4.528407645927213, -37.64240504171026 4.148714422469115, -37.723756485136455 3.8384861107464276 M-37.443270464882396 4.90810086938531 C-37.534520303628966 4.5601256863143425, -37.62577014237554 4.212150503243374, -37.723756485136455 3.8384861107464276 M-37.723756485136455 3.8384861107464276 C-37.786101179875075 3.518359279819512, -37.8484458746137 3.198232448892596, -37.93513576389927 2.7530981893258 M-37.723756485136455 3.8384861107464276 C-37.80140559807003 3.439774326978357, -37.879054711003604 3.041062543210287, -37.93513576389927 2.7530981893258 M-37.93513576389927 2.7530981893258 C-37.97294103258718 2.4598879908770366, -38.01074630127509 2.166677792428273, -38.076539698373665 1.6563971969075233 M-37.93513576389927 2.7530981893258 C-37.99151799730617 2.3158087209531497, -38.047900230713076 1.8785192525804992, -38.076539698373665 1.6563971969075233 M-38.076539698373665 1.6563971969075233 C-38.09782621385559 1.3248425361104812, -38.11911272933752 0.9932878753134389, -38.14738722946187 0.5528897131110537 M-38.076539698373665 1.6563971969075233 C-38.091436831003925 1.4243623314421738, -38.10633396363419 1.1923274659768244, -38.14738722946187 0.5528897131110537 M-38.14738722946187 0.5528897131110537 C-38.14738722946187 0.30667347318910815, -38.14738722946187 0.06045723326716257, -38.14738722946187 -0.5528897131110454 M-38.14738722946187 0.5528897131110537 C-38.14738722946187 0.23611095597407178, -38.14738722946187 -0.08066780116291017, -38.14738722946187 -0.5528897131110454 M-38.14738722946187 -0.5528897131110454 C-38.12106739841444 -0.9628423266600165, -38.094747567367 -1.3727949402089874, -38.076539698373665 -1.6563971969074995 M-38.14738722946187 -0.5528897131110454 C-38.12472500612848 -0.9058721341460326, -38.10206278279508 -1.2588545551810197, -38.076539698373665 -1.6563971969074995 M-38.076539698373665 -1.6563971969074995 C-38.02891449967452 -2.0257688333588897, -37.98128930097537 -2.39514046981028, -37.93513576389927 -2.753098189325792 M-38.076539698373665 -1.6563971969074995 C-38.04304095309926 -1.9162068501803644, -38.00954220782485 -2.176016503453229, -37.93513576389927 -2.753098189325792 M-37.93513576389927 -2.753098189325792 C-37.87328674106953 -3.070679849760905, -37.81143771823979 -3.3882615101960174, -37.72375648513646 -3.8384861107464197 M-37.93513576389927 -2.753098189325792 C-37.868454170324405 -3.095494079172919, -37.80177257674954 -3.4378899690200457, -37.72375648513646 -3.8384861107464197 M-37.72375648513646 -3.8384861107464197 C-37.648432837460696 -4.125727824809538, -37.57310918978492 -4.412969538872657, -37.4432704648824 -4.908100869385301 M-37.72375648513646 -3.8384861107464197 C-37.65076097187105 -4.116849639283006, -37.57776545860564 -4.395213167819592, -37.4432704648824 -4.908100869385301 M-37.4432704648824 -4.908100869385301 C-37.33325743830785 -5.239442577232452, -37.22324441173329 -5.570784285079604, -37.09483028035837 -5.957547188767545 M-37.4432704648824 -4.908100869385301 C-37.318665146388646 -5.283392235527102, -37.19405982789489 -5.658683601668903, -37.09483028035837 -5.957547188767545 M-37.09483028035837 -5.957547188767545 C-36.975785865692494 -6.251589194559445, -36.85674145102662 -6.545631200351345, -36.67986774702277 -6.982512668861291 M-37.09483028035837 -5.957547188767545 C-36.94184097152032 -6.335433739444599, -36.78885166268227 -6.713320290121653, -36.67986774702277 -6.982512668861291 M-36.67986774702277 -6.982512668861291 C-36.55647849981561 -7.238733080793907, -36.433089252608454 -7.494953492726525, -36.200088034934254 -7.978785506654402 M-36.67986774702277 -6.982512668861291 C-36.499111121059535 -7.357857670246171, -36.318354495096294 -7.73320267163105, -36.200088034934254 -7.978785506654402 M-36.200088034934254 -7.978785506654402 C-36.04720995964215 -8.250236009919304, -35.89433188435005 -8.521686513184207, -35.65746266184222 -8.942271803356562 M-36.200088034934254 -7.978785506654402 C-36.05824461939097 -8.230642854154816, -35.91640120384769 -8.482500201655231, -35.65746266184222 -8.942271803356562 M-35.65746266184222 -8.942271803356562 C-35.50402567727946 -9.177992215244364, -35.3505886927167 -9.413712627132167, -35.05422139179749 -9.869012387107427 M-35.65746266184222 -8.942271803356562 C-35.451813237735315 -9.258204543387315, -35.24616381362841 -9.574137283418068, -35.05422139179749 -9.869012387107427 M-35.05422139179749 -9.869012387107427 C-34.871476043731874 -10.113874505071657, -34.68873069566625 -10.358736623035886, -34.39284307257352 -10.75519908206315 M-35.05422139179749 -9.869012387107427 C-34.82788531652242 -10.172282108335384, -34.60154924124734 -10.47555182956334, -34.39284307257352 -10.75519908206315 M-34.39284307257352 -10.75519908206315 C-34.12419517666336 -11.070768187097546, -33.85554728075321 -11.386337292131941, -33.6760454495492 -11.597190357007708 M-34.39284307257352 -10.75519908206315 C-34.20315376765461 -10.978018933248121, -34.0134644627357 -11.200838784433092, -33.6760454495492 -11.597190357007708 M-33.6760454495492 -11.597190357007708 C-33.42485278836355 -11.856567402982915, -33.173660127177904 -12.115944448958121, -32.90677399791015 -12.39152628918579 M-33.6760454495492 -11.597190357007708 C-33.43819953300534 -11.842785793352157, -33.20035361646148 -12.088381229696605, -32.90677399791015 -12.39152628918579 M-32.90677399791015 -12.39152628918579 C-32.64432029008451 -12.629879802488457, -32.38186658225887 -12.868233315791123, -32.088189819059366 -13.134942781867558 M-32.90677399791015 -12.39152628918579 C-32.70670751698576 -12.573221373692313, -32.50664103606137 -12.754916458198835, -32.088189819059366 -13.134942781867558 M-32.088189819059366 -13.134942781867558 C-31.908161670032502 -13.278510439966237, -31.72813352100564 -13.422078098064915, -31.22365665097348 -13.824384977222248 M-32.088189819059366 -13.134942781867558 C-31.8112689499398 -13.355779805816596, -31.534348080820237 -13.576616829765635, -31.22365665097348 -13.824384977222248 M-31.22365665097348 -13.824384977222248 C-30.87691229158741 -14.066258832008577, -30.53016793220134 -14.308132686794906, -30.316727045881976 -14.457019809384244 M-31.22365665097348 -13.824384977222248 C-30.983811437212847 -13.991690615609704, -30.743966223452208 -14.158996253997161, -30.316727045881976 -14.457019809384244 M-30.316727045881976 -14.457019809384244 C-30.112045177353874 -14.581099160930153, -29.90736330882577 -14.705178512476063, -29.37112777206793 -15.030247646128466 M-30.316727045881976 -14.457019809384244 C-30.020421446312735 -14.6366420051281, -29.724115846743494 -14.816264200871958, -29.37112777206793 -15.030247646128466 M-29.37112777206793 -15.030247646128466 C-29.09519622462799 -15.174200957685292, -28.81926467718805 -15.318154269242118, -28.39074449977788 -15.541712971316729 M-29.37112777206793 -15.030247646128466 C-29.049814420631602 -15.197876615761773, -28.728501069195275 -15.365505585395082, -28.39074449977788 -15.541712971316729 M-28.39074449977788 -15.541712971316729 C-28.178562727627906 -15.635639547698883, -27.966380955477934 -15.729566124081035, -27.37960583416921 -15.98931406421887 M-28.39074449977788 -15.541712971316729 C-28.175296379132252 -15.637085463285123, -27.95984825848662 -15.732457955253519, -27.37960583416921 -15.98931406421887 M-27.37960583416921 -15.98931406421887 C-26.977144873309946 -16.137423418123422, -26.574683912450677 -16.285532772027974, -26.34186676090747 -16.37121163593403 M-27.37960583416921 -15.98931406421887 C-27.122482905733218 -16.083937678701613, -26.86535997729722 -16.178561293184355, -26.34186676090747 -16.37121163593403 M-26.34186676090747 -16.37121163593403 C-25.98409963800691 -16.477395040052965, -25.62633251510635 -16.583578444171902, -25.28179157243902 -16.68583638742325 M-26.34186676090747 -16.37121163593403 C-25.99294485545642 -16.474769825943447, -25.64402295000537 -16.57832801595286, -25.28179157243902 -16.68583638742325 M-25.28179157243902 -16.68583638742325 C-24.93083119767978 -16.76594080273157, -24.579870822920544 -16.84604521803989, -24.20373634509868 -16.931895458095877 M-25.28179157243902 -16.68583638742325 C-24.936289836628553 -16.76469490401246, -24.59078810081809 -16.84355342060167, -24.20373634509868 -16.931895458095877 M-24.20373634509868 -16.931895458095877 C-23.842336139956235 -16.99032384056286, -23.48093593481379 -17.048752223029837, -23.11213103905774 -17.108377738450994 M-24.20373634509868 -16.931895458095877 C-23.90099662576189 -16.98084006813666, -23.598256906425103 -17.029784678177446, -23.11213103905774 -17.108377738450994 M-23.11213103905774 -17.108377738450994 C-22.6734729127335 -17.15069456033391, -22.234814786409267 -17.193011382216827, -22.0114612946673 -17.2145580249433 M-23.11213103905774 -17.108377738450994 C-22.83697111125643 -17.134922085757758, -22.561811183455127 -17.16146643306452, -22.0114612946673 -17.2145580249433 M-22.0114612946673 -17.2145580249433 C-21.730501780198967 -17.22356784971778, -21.449542265730635 -17.232577674492262, -20.906250000000004 -17.25 M-22.0114612946673 -17.2145580249433 C-21.751138223450805 -17.222906079149094, -21.490815152234312 -17.231254133354888, -20.906250000000004 -17.25 M-20.906250000000004 -17.25 C-20.906250000000004 -17.25, -20.90625 -17.25, -20.90625 -17.25 M-20.906250000000004 -17.25 C-20.906250000000004 -17.25, -20.906250000000004 -17.25, -20.90625 -17.25" stroke="#999" stroke-width="1.3" fill="none" stroke-dasharray="0 0" style=""></path></g><g class="label" style="" transform="translate(-26.34375, -9.75)"><rect></rect><foreignObject width="52.6875" height="19.5"><div xmlns="http://www.w3.org/1999/xhtml" style="display: table-cell; white-space: nowrap; line-height: 1.5; max-width: 200px; text-align: center;"><span class="nodeLabel"><p>Browser</p></span></div></foreignObject></g></g><g class="node default" id="mermaid-1785719082815-flowchart-Nginx-1" data-look="classic" transform="translate(530.90625, 142.25)"><rect class="basic label-container" style="" x="-48.765625" y="-24.75" width="97.53125" height="49.5"></rect><g class="label" style="" transform="translate(-18.765625, -9.75)"><rect></rect><foreignObject width="37.53125" height="19.5"><div xmlns="http://www.w3.org/1999/xhtml" style="display: table-cell; white-space: nowrap; line-height: 1.5; max-width: 200px; text-align: center;"><span class="nodeLabel"><p>Nginx</p></span></div></foreignObject></g></g><g class="node default" id="mermaid-1785719082815-flowchart-Backend-3" data-look="classic" transform="translate(530.90625, 241.75)"><rect class="basic label-container" style="" x="-83.203125" y="-24.75" width="166.40625" height="49.5"></rect><g class="label" style="" transform="translate(-53.203125, -9.75)"><rect></rect><foreignObject width="106.40625" height="19.5"><div xmlns="http://www.w3.org/1999/xhtml" style="display: table-cell; white-space: nowrap; line-height: 1.5; max-width: 200px; text-align: center;"><span class="nodeLabel"><p>FastAPI Backend</p></span></div></foreignObject></g></g><g class="node default" id="mermaid-1785719082815-flowchart-MySQL-4" data-look="classic" transform="translate(478.47265625, 393.767147064209)"><path d="M0,8.075230599983074 a29.8203125,8.075230599983074 0,0,0 59.640625,0 a29.8203125,8.075230599983074 0,0,0 -59.640625,0 l0,42.57523059998307 a29.8203125,8.075230599983074 0,0,0 59.640625,0 l0,-42.57523059998307" class="basic label-container outer-path" style="" transform="translate(-29.8203125, -29.36284589997461)"></path><g class="label" style="" transform="translate(-22.3203125, 0.25)"><rect></rect><foreignObject width="44.640625" height="19.5"><div xmlns="http://www.w3.org/1999/xhtml" style="display: table-cell; white-space: nowrap; line-height: 1.5; max-width: 200px; text-align: center;"><span class="nodeLabel"><p>MySQL</p></span></div></foreignObject></g></g><g class="node default" id="mermaid-1785719082815-flowchart-Redis-5" data-look="classic" transform="translate(583.33984375, 393.767147064209)"><path d="M0,7.152418347313938 a25.046875,7.152418347313938 0,0,0 50.09375,0 a25.046875,7.152418347313938 0,0,0 -50.09375,0 l0,41.65241834731394 a25.046875,7.152418347313938 0,0,0 50.09375,0 l0,-41.65241834731394" class="basic label-container outer-path" style="" transform="translate(-25.046875, -27.97862752097091)"></path><g class="label" style="" transform="translate(-17.546875, 0.25)"><rect></rect><foreignObject width="35.09375" height="19.5"><div xmlns="http://www.w3.org/1999/xhtml" style="display: table-cell; white-space: nowrap; line-height: 1.5; max-width: 200px; text-align: center;"><span class="nodeLabel"><p>Redis</p></span></div></foreignObject></g></g><g class="node default" id="mermaid-1785719082815-flowchart-Meilisearch-6" data-look="classic" transform="translate(702.50390625, 393.767147064209)"><path d="M0,10.344764417088005 a44.1171875,10.344764417088005 0,0,0 88.234375,0 a44.1171875,10.344764417088005 0,0,0 -88.234375,0 l0,44.844764417088 a44.1171875,10.344764417088005 0,0,0 88.234375,0 l0,-44.844764417088" class="basic label-container outer-path" style="" transform="translate(-44.1171875, -32.76714662563201)"></path><g class="label" style="" transform="translate(-36.6171875, 0.25)"><rect></rect><foreignObject width="73.234375" height="19.5"><div xmlns="http://www.w3.org/1999/xhtml" style="display: table-cell; white-space: nowrap; line-height: 1.5; max-width: 200px; text-align: center;"><span class="nodeLabel"><p>Meilisearch</p></span></div></foreignObject></g></g><g class="node default" id="mermaid-1785719082815-flowchart-Artifacts-20" data-look="classic" transform="translate(871.37890625, 393.767147064209)"><path d="M0,8.934452566471203 a34.7578125,8.934452566471203 0,0,0 69.515625,0 a34.7578125,8.934452566471203 0,0,0 -69.515625,0 l0,43.4344525664712 a34.7578125,8.934452566471203 0,0,0 69.515625,0 l0,-43.4344525664712" class="basic label-container outer-path" style="" transform="translate(-34.7578125, -30.651678849706805)"></path><g class="label" style="" transform="translate(-27.2578125, 0.25)"><rect></rect><foreignObject width="54.515625" height="19.5"><div xmlns="http://www.w3.org/1999/xhtml" style="display: table-cell; white-space: nowrap; line-height: 1.5; max-width: 200px; text-align: center;"><span class="nodeLabel"><p>Artifacts</p></span></div></foreignObject></g></g><g class="node default" id="mermaid-1785719082815-flowchart-Training-22" data-look="classic" transform="translate(871.37890625, 241.75)"><rect class="basic label-container" style="" x="-83.15625" y="-24.75" width="166.3125" height="49.5"></rect><g class="label" style="" transform="translate(-53.15625, -9.75)"><rect></rect><foreignObject width="106.3125" height="19.5"><div xmlns="http://www.w3.org/1999/xhtml" style="display: table-cell; white-space: nowrap; line-height: 1.5; max-width: 200px; text-align: center;"><span class="nodeLabel"><p>Training Pipeline</p></span></div></foreignObject></g></g><g class="node default" id="mermaid-1785719082815-flowchart-Prom-28" data-look="classic" transform="translate(131.8203125, 393.767147064209)"><rect class="basic label-container" style="" x="-68.8203125" y="-24.75" width="137.640625" height="49.5"></rect><g class="label" style="" transform="translate(-38.8203125, -9.75)"><rect></rect><foreignObject width="77.640625" height="19.5"><div xmlns="http://www.w3.org/1999/xhtml" style="display: table-cell; white-space: nowrap; line-height: 1.5; max-width: 200px; text-align: center;"><span class="nodeLabel"><p>Prometheus</p></span></div></foreignObject></g></g><g class="node default" id="mermaid-1785719082815-flowchart-Graf-29" data-look="classic" transform="translate(131.8203125, 760.284294128418)"><rect class="basic label-container" style="" x="-56.0703125" y="-24.75" width="112.140625" height="49.5"></rect><g class="label" style="" transform="translate(-26.0703125, -9.75)"><rect></rect><foreignObject width="52.140625" height="19.5"><div xmlns="http://www.w3.org/1999/xhtml" style="display: table-cell; white-space: nowrap; line-height: 1.5; max-width: 200px; text-align: center;"><span class="nodeLabel"><p>Grafana</p></span></div></foreignObject></g></g><g class="node default" id="mermaid-1785719082815-flowchart-Jaeger-30" data-look="classic" transform="translate(301.34375, 393.767147064209)"><rect class="basic label-container" style="" x="-50.703125" y="-24.75" width="101.40625" height="49.5"></rect><g class="label" style="" transform="translate(-20.703125, -9.75)"><rect></rect><foreignObject width="41.40625" height="19.5"><div xmlns="http://www.w3.org/1999/xhtml" style="display: table-cell; white-space: nowrap; line-height: 1.5; max-width: 200px; text-align: center;"><span class="nodeLabel"><p>Jaeger</p></span></div></foreignObject></g></g></g></g></g><defs><filter id="mermaid-1785719082815-drop-shadow" height="130%" width="130%"><feDropShadow dx="4" dy="4" stdDeviation="0" flood-opacity="0.06" flood-color="#000000"></feDropShadow></filter></defs><defs><filter id="mermaid-1785719082815-drop-shadow-small" height="150%" width="150%"><feDropShadow dx="2" dy="2" stdDeviation="0" flood-opacity="0.06" flood-color="#000000"></feDropShadow></filter></defs><linearGradient id="mermaid-1785719082815-gradient" gradientUnits="objectBoundingBox" x1="0%" y1="0%" x2="100%" y2="0%"><stop offset="0%" stop-color="hsl(0, 0%, 83.3333333333%)" stop-opacity="1"></stop><stop offset="100%" stop-color="hsl(0, 0%, 88.9215686275%)" stop-opacity="1"></stop></linearGradient></svg>